<svg xmlns="http://www.w3.org/2000/svg" xmlns:xlink="http://www.w3.org/1999/xlink" width="960" height="1078" viewBox="0 0 960 1078">
  <defs>
    <clipPath id="clip-path">
      <path id="Path_227" data-name="Path 227" d="M597.852,259.81s18.565,1.9,19.734,17.271-6.557,79.131-6.557,79.131l-50.608-3.23,4.77-72.267a22.4,22.4,0,0,1,3.5-11c1.941-3.031,4.214-6.467,5.505-6.628l20.818-5.352Z" fill="none"/>
    </clipPath>
    <clipPath id="clip-path-2">
      <path id="Path_241" data-name="Path 241" d="M597.372,272.417s2.079-13.78,11.986-10.079,9.665,45.031,5.805,51.415L586.722,300.1Z" fill="#4f6aff"/>
    </clipPath>
  </defs>
  <g id="Group_179" data-name="Group 179" transform="translate(-960)">
    <rect id="Rectangle_460" data-name="Rectangle 460" width="960" height="1078" transform="translate(960)" fill="#eef6ff"/>
    <g id="Group_178" data-name="Group 178" transform="translate(1040 289)">
      <g id="BACKGROUND">
        <rect id="Rectangle_526" data-name="Rectangle 526" width="750" height="500" fill="#edf5ff"/>
      </g>
      <g id="OBJECTS">
        <g id="Group_86" data-name="Group 86">
          <g id="Group_84" data-name="Group 84">
            <path id="Path_36" data-name="Path 36" d="M216.826,120.385a11.8,11.8,0,0,1,15.4-15.886c-.136-9.662,6.811-18.031,14.573-23.786,4.007-2.971,8.5-5.573,13.46-6.128,6.532-.73,13.058,2.256,17.932,6.666s8.338,10.136,11.536,15.879a7.86,7.86,0,0,1,14.046,6.951c7.743-1.285,15.843,5.282,16.188,13.124" fill="#fff"/>
            <path id="Path_37" data-name="Path 37" d="M470.211,77.286a9.881,9.881,0,0,0-12.895-13.3c.114-8.091-5.7-15.1-12.2-19.918-3.355-2.489-7.12-4.667-11.272-5.132-5.47-.611-10.935,1.889-15.016,5.582s-6.982,8.488-9.66,13.3A6.582,6.582,0,0,0,397.4,63.633c-6.485-1.076-13.267,4.424-13.556,10.99" fill="#fff"/>
            <path id="Path_38" data-name="Path 38" d="M147.992,177.807a7.814,7.814,0,0,0-10.2-10.519c.09-6.4-4.51-11.938-9.65-15.749-2.653-1.967-5.63-3.69-8.912-4.057-4.325-.484-8.647,1.493-11.874,4.414s-5.521,6.711-7.638,10.513a5.2,5.2,0,0,0-9.3,4.6A9.618,9.618,0,0,0,79.7,175.7" fill="#fff"/>
            <path id="Path_39" data-name="Path 39" d="M604.9,177.807a7.813,7.813,0,0,0-10.2-10.519c.09-6.4-4.51-11.938-9.649-15.749-2.654-1.967-5.63-3.69-8.913-4.057-4.325-.484-8.646,1.493-11.873,4.414s-5.521,6.711-7.639,10.513a5.2,5.2,0,0,0-9.3,4.6,9.617,9.617,0,0,0-10.718,8.69" fill="#fff"/>
          </g>
          <g id="Group_85" data-name="Group 85">
            <path id="Path_40" data-name="Path 40" d="M531.14,209.454a4.656,4.656,0,1,0-4.656,4.655A4.655,4.655,0,0,0,531.14,209.454Z" fill="#fff"/>
            <path id="Path_41" data-name="Path 41" d="M272.423,168.218a3.991,3.991,0,1,0-3.99,3.991A3.991,3.991,0,0,0,272.423,168.218Z" fill="#fff"/>
            <path id="Path_42" data-name="Path 42" d="M301.022,124.988a4.656,4.656,0,1,0-4.656,4.656A4.656,4.656,0,0,0,301.022,124.988Z" fill="#fff"/>
            <path id="Path_43" data-name="Path 43" d="M282.4,117.007a1.33,1.33,0,1,0-1.33,1.33A1.33,1.33,0,0,0,282.4,117.007Z" fill="#fff"/>
            <circle id="Ellipse_159" data-name="Ellipse 159" cx="3.325" cy="3.325" r="3.325" transform="translate(424.727 126.318)" fill="#fff"/>
            <path id="Path_44" data-name="Path 44" d="M644.869,377.719a4.656,4.656,0,1,0-4.656,4.656A4.655,4.655,0,0,0,644.869,377.719Z" fill="#fff"/>
            <path id="Path_45" data-name="Path 45" d="M152.708,276.627a2.66,2.66,0,1,0-2.66,2.66A2.66,2.66,0,0,0,152.708,276.627Z" fill="#fff"/>
            <path id="Path_46" data-name="Path 46" d="M148.718,216.77a6.651,6.651,0,1,0-6.651,6.65A6.651,6.651,0,0,0,148.718,216.77Z" fill="#fff"/>
          </g>
        </g>
        <g id="Group_111" data-name="Group 111">
          <g id="Group_87" data-name="Group 87" style="mix-blend-mode: multiply;isolation: isolate">
            <path id="Path_47" data-name="Path 47" d="M36.76,464.18c-7.159-8.115-7.07-31.6-1.377-40.8a26.148,26.148,0,0,1,28.16-11.192c-4.919-19.143-.886-39.444,5.087-58.285,4.433-13.984,10.141-27.974,20.115-38.731,15.35-16.556,39.3-23.288,61.812-21.524s43.783,11.129,63.183,22.676c12.877-50.04,27.313-102.826,64.625-138.571,47.572-45.574,126.786-50.882,183.011-16.547s87.479,103.215,81.98,168.865c20.621-2.056,42.69,1.064,59.132,13.678s25.3,36.3,16.58,55.1c42.884-9.828,90.79,20.937,99.692,64.023" fill="#a5cdf2" opacity="0.68"/>
            <path id="Path_48" data-name="Path 48" d="M36.76,464.18c-7.159-6.656-7.07-25.914-1.377-33.462s17.7-11.462,28.16-9.179c-4.919-15.7-.886-32.351,5.087-47.8,4.433-11.469,10.141-22.944,20.115-31.766,15.35-13.579,39.3-19.1,61.812-17.653s43.783,9.127,63.183,18.6c12.877-41.042,27.313-84.336,64.625-113.652,47.572-37.38,126.786-41.733,183.011-13.572s87.479,84.654,81.98,138.5c20.621-1.686,42.69.872,59.132,11.218s25.3,29.77,16.58,45.188c42.884-8.061,90.79,17.171,99.692,52.51" fill="#a5cdf2" opacity="0.24" style="mix-blend-mode: screen;isolation: isolate"/>
          </g>
          <g id="Group_110" data-name="Group 110">
            <g id="Group_98" data-name="Group 98">
              <g id="Group_92" data-name="Group 92" opacity="0.28">
                <g id="Group_91" data-name="Group 91">
                  <g id="Group_90" data-name="Group 90">
                    <g id="Group_88" data-name="Group 88">
                      <path id="Path_49" data-name="Path 49" d="M300.811,355.711q-5.9,11.841-12.11,23.522-7.053,13.238-14.539,26.258a399.033,399.033,0,0,1,16.776,57.6l47.154-.107A1037.009,1037.009,0,0,0,300.811,355.711Z" fill="#4f6aff"/>
                      <path id="Path_50" data-name="Path 50" d="M268.527,391.269q2.2,5.262,4.254,10.581,13.842-24.147,26.157-49.123a1.465,1.465,0,0,1,.411-.517q-1.893-4.5-3.86-9.015-14.229,23.461-26.827,47.858A1.688,1.688,0,0,1,268.527,391.269Z" fill="#4f6aff"/>
                      <path id="Path_51" data-name="Path 51" d="M215.2,410.11c4.721,8.574,9.5,17.135,13.315,26.162,3.341,7.9,6.262,16.5,6.165,25.189q7.76-10.781,15.029-21.9,11.048-16.879,21.141-34.363A404.483,404.483,0,0,0,233.5,330.833a399.48,399.48,0,0,0-29.6-40.5,1.287,1.287,0,0,1-.155.032q-10.807,1.128-21.538,2.865-8.443,1.374-16.814,3.136a49.508,49.508,0,0,0,6.393,13.68c19.3,28.212-7.247,17.73-22.273,25.242a18.529,18.529,0,0,0-2.843,1.788c11.261,4.452,20.72,12.138,29.293,20.543A224.479,224.479,0,0,1,215.2,410.11Z" fill="#4f6aff"/>
                      <path id="Path_52" data-name="Path 52" d="M277.635,424.61q-2.546-7.935-5.423-15.757c-10.864,18.648-22.479,36.861-35.093,54.363l50.752-.115A395.12,395.12,0,0,0,277.635,424.61Z" fill="#4f6aff"/>
                      <path id="Path_53" data-name="Path 53" d="M201.6,287.588a393.6,393.6,0,0,0-34.176-35.556c-5.176,12.515-6.148,27.983-2.82,41.432Q182.94,289.635,201.6,287.588Z" fill="#4f6aff"/>
                      <path id="Path_54" data-name="Path 54" d="M190.557,229.738c-.488,4.309,3.319,8.838,7.87,8.164,4.127-.611,6.817-5.295,5.672-9.182a1.675,1.675,0,0,1-.065-.386,34.438,34.438,0,0,0-13.492.978A1.525,1.525,0,0,1,190.557,229.738Z" fill="#4f6aff"/>
                      <path id="Path_55" data-name="Path 55" d="M223.941,433.346c-3.9-8.437-8.488-16.533-12.97-24.668a212.311,212.311,0,0,0-17.758-27.107,208.478,208.478,0,0,0-21.444-23.811c-7.681-7.3-16.2-14-26.162-17.88a1.533,1.533,0,0,1-.962-1.087c-10.57,9.883-19.579,33.816,4.872,54.406,28.212,23.758,22.273,26.727,17.818,44.545s2.588,25.625,2.588,25.625l61.674-.14C232.212,452.88,228.2,442.575,223.941,433.346Z" fill="#4f6aff"/>
                      <path id="Path_56" data-name="Path 56" d="M168.775,249.177A394.505,394.505,0,0,1,209.018,291.8,406.455,406.455,0,0,1,263.9,380.629q1.59,3.519,3.111,7.068,12.232-23.542,26-46.241a1.4,1.4,0,0,1,1.4-.707c-23.466-53.268-54.3-105.215-87.192-111.91,1,5.384-2.839,11.24-8.394,12.039-5.972.859-11.591-4.613-11.338-10.517-8.353,3.377-14.621,10.229-18.77,18.772C168.74,249.148,168.758,249.161,168.775,249.177Z" fill="#4f6aff"/>
                    </g>
                    <g id="Group_89" data-name="Group 89">
                      <path id="Path_57" data-name="Path 57" d="M259.018,463.976s-21.151-32.005-43.953-60.49q-9.638,11.564-18.617,23.655a1.206,1.206,0,0,1-.085.1q14.325,16.769,27.01,34.85a.788.788,0,0,1-.072,1.064Z" fill="#fff"/>
                      <path id="Path_58" data-name="Path 58" d="M195.1,425.767q9.04-12.159,18.749-23.8c-3.413-4.233-6.855-8.374-10.261-12.3-5.344,9.861-10.233,19.983-13.054,30.879Q192.835,423.135,195.1,425.767Z" fill="#fff"/>
                      <path id="Path_59" data-name="Path 59" d="M221.718,463.058q-5.278-7.524-10.851-14.837-1.632-2.139-3.291-4.256a1.053,1.053,0,0,1-.216.022c-14.646-.023-29.419-.275-43.865,2.514-1.207.233-1.719-1.615-.509-1.848,14.2-2.742,28.7-2.615,43.1-2.585a458.883,458.883,0,0,0-33.621-37.992,4.2,4.2,0,0,1-2.117,3.3c-11.319,6.6-12.262-16.979-32.071-7.546s38.674,62.256,38.674,62.256l44.813,1.03A.76.76,0,0,1,221.718,463.058Z" fill="#fff"/>
                      <path id="Path_60" data-name="Path 60" d="M182.322,411.545q3.379,3.606,6.679,7.29c2.959-10.809,7.894-20.887,13.241-30.712-14.876-16.964-28.9-29.584-36.608-27.908-17.726,3.854,4.217,28.486,6.666,40.972Q177.391,406.289,182.322,411.545Z" fill="#fff"/>
                    </g>
                  </g>
                </g>
              </g>
              <g id="Group_97" data-name="Group 97" opacity="0.28">
                <g id="Group_96" data-name="Group 96">
                  <g id="Group_95" data-name="Group 95">
                    <g id="Group_93" data-name="Group 93">
                      <path id="Path_61" data-name="Path 61" d="M434.557,355.711q5.9,11.841,12.11,23.522,7.053,13.238,14.539,26.258a399.037,399.037,0,0,0-16.776,57.6l-47.154-.107A1037.009,1037.009,0,0,1,434.557,355.711Z" fill="#4f6aff"/>
                      <path id="Path_62" data-name="Path 62" d="M466.841,391.269q-2.2,5.262-4.253,10.581Q448.745,377.7,436.43,352.727a1.454,1.454,0,0,0-.411-.517q1.895-4.5,3.86-9.015,14.229,23.461,26.827,47.858A1.691,1.691,0,0,0,466.841,391.269Z" fill="#4f6aff"/>
                      <path id="Path_63" data-name="Path 63" d="M520.172,410.11c-4.721,8.574-9.5,17.135-13.315,26.162-3.341,7.9-6.262,16.5-6.165,25.189q-7.759-10.781-15.029-21.9-11.047-16.879-21.141-34.363a404.424,404.424,0,0,1,37.344-74.364,399.473,399.473,0,0,1,29.6-40.5,1.288,1.288,0,0,0,.155.032q10.807,1.128,21.538,2.865,8.444,1.374,16.814,3.136a49.535,49.535,0,0,1-6.392,13.68c-19.3,28.212,7.246,17.73,22.272,25.242a18.48,18.48,0,0,1,2.843,1.788c-11.261,4.452-20.72,12.138-29.293,20.543A224.479,224.479,0,0,0,520.172,410.11Z" fill="#4f6aff"/>
                      <path id="Path_64" data-name="Path 64" d="M457.734,424.61q2.544-7.935,5.422-15.757c10.864,18.648,22.48,36.861,35.094,54.363L447.5,463.1A394.83,394.83,0,0,1,457.734,424.61Z" fill="#4f6aff"/>
                      <path id="Path_65" data-name="Path 65" d="M533.771,287.588a393.594,393.594,0,0,1,34.176-35.556c5.176,12.515,6.149,27.983,2.82,41.432Q552.428,289.635,533.771,287.588Z" fill="#4f6aff"/>
                      <path id="Path_66" data-name="Path 66" d="M544.811,229.738c.489,4.309-3.319,8.838-7.869,8.164-4.128-.611-6.818-5.295-5.673-9.182a1.675,1.675,0,0,0,.065-.386,34.438,34.438,0,0,1,13.492.978A1.527,1.527,0,0,0,544.811,229.738Z" fill="#4f6aff"/>
                      <path id="Path_67" data-name="Path 67" d="M511.428,433.346c3.9-8.437,8.487-16.533,12.97-24.668a212.2,212.2,0,0,1,17.757-27.107A208.475,208.475,0,0,1,563.6,357.76c7.681-7.3,16.2-14,26.162-17.88a1.531,1.531,0,0,0,.962-1.087c10.57,9.883,19.579,33.816-4.872,54.406-28.212,23.758-22.272,26.727-17.818,44.545s-2.588,25.625-2.588,25.625l-61.674-.14C503.156,452.88,507.166,442.575,511.428,433.346Z" fill="#4f6aff"/>
                      <path id="Path_68" data-name="Path 68" d="M566.593,249.177A394.505,394.505,0,0,0,526.35,291.8a406.455,406.455,0,0,0-54.885,88.829q-1.59,3.519-3.111,7.068-12.232-23.542-26-46.241a1.4,1.4,0,0,0-1.4-.707c23.466-53.268,54.3-105.215,87.192-111.91-1,5.384,2.839,11.24,8.394,12.039,5.972.859,11.591-4.613,11.338-10.517,8.353,3.377,14.621,10.229,18.771,18.772C566.628,249.148,566.61,249.161,566.593,249.177Z" fill="#4f6aff"/>
                    </g>
                    <g id="Group_94" data-name="Group 94">
                      <path id="Path_69" data-name="Path 69" d="M476.35,463.976s21.151-32.005,43.953-60.49q9.638,11.564,18.617,23.655a1.215,1.215,0,0,0,.085.1q-14.325,16.769-27.01,34.85a.788.788,0,0,0,.072,1.064Z" fill="#fff"/>
                      <path id="Path_70" data-name="Path 70" d="M540.271,425.767q-9.04-12.159-18.749-23.8c3.413-4.233,6.855-8.374,10.261-12.3,5.344,9.861,10.233,19.983,13.055,30.879Q542.533,423.135,540.271,425.767Z" fill="#fff"/>
                      <path id="Path_71" data-name="Path 71" d="M513.65,463.058q5.278-7.524,10.851-14.837,1.632-2.139,3.291-4.256a1.061,1.061,0,0,0,.216.022c14.646-.023,29.419-.275,43.865,2.514,1.207.233,1.719-1.615.51-1.848-14.2-2.742-28.7-2.615-43.1-2.585A459.056,459.056,0,0,1,562.9,404.076a4.2,4.2,0,0,0,2.117,3.3c11.319,6.6,12.262-16.979,32.071-7.546s-38.674,62.256-38.674,62.256l-44.813,1.03A.767.767,0,0,0,513.65,463.058Z" fill="#fff"/>
                      <path id="Path_72" data-name="Path 72" d="M563.068,401.187c2.449-12.486,24.392-37.118,6.666-40.972-7.709-1.676-21.732,10.944-36.608,27.908,5.347,9.825,10.282,19.9,13.241,30.712q3.3-3.68,6.68-7.29Q557.974,406.286,563.068,401.187Z" fill="#fff"/>
                    </g>
                  </g>
                </g>
              </g>
            </g>
            <g id="Group_109" data-name="Group 109">
              <path id="Path_73" data-name="Path 73" d="M80.369,464.18c2.831-14.424,24.063-28.79,38.368-25.409,4.133-16.416,26.486-24.932,40.494-15.428,4.567-17.455,10.243-36.506,25.374-46.335,17.234-11.2,41.25-5.718,57.15,7.3s25.543,31.97,34.738,50.349c1.451-4.633,8-5.826,12.228-3.439s6.606,7,8.669,11.4A77.519,77.519,0,0,0,339.3,381.667l42.884-9.076c4.115,17.68,8.815,36.417,21.938,48.959s37.633,14.816,47.816-.211c2.257-3.329,3.9-7.471,7.538-9.192,7.144-3.382,13.995,4.995,17.511,12.074,6.337-12.4,26.3-14.423,35-3.556,7.2-24.667,33.633-42.137,59.15-39.1s47.1,26.23,48.31,51.9c16.882-6.49,45.17,12,50.183,29.383" fill="#fff" opacity="0.61"/>
              <path id="Path_74" data-name="Path 74" d="M342.208,392.261a34.13,34.13,0,0,0-2.826,11.211,3.871,3.871,0,0,0,.146,1.735,2.822,2.822,0,0,0,3.523,1.257,8.2,8.2,0,0,0,3.207-2.525,49.445,49.445,0,0,0,16.948,34.489,1.865,1.865,0,0,0,3.1-.028,45.925,45.925,0,0,0,13.372-36.005c2.327,1.515,5.558-1.032,5.774-3.8S384,393.3,382.4,391.032" fill="#fff" opacity="0.79"/>
              <g id="Group_107" data-name="Group 107">
                <path id="Path_75" data-name="Path 75" d="M394.245,369.487V348.439H333.183v20.894c-8,5.192-11.876,14.263-11.876,24.509h84.815C406.122,383.6,402.244,374.679,394.245,369.487Z" fill="#18004c"/>
                <path id="Path_76" data-name="Path 76" d="M353.092,353.471c13.368,5.465,41.153,15.939,41.153,15.939V348.439H340.738C344.817,350.2,348.986,351.793,353.092,353.471Z" fill="#0a0a0a"/>
                <g id="Group_99" data-name="Group 99">
                  <path id="Path_77" data-name="Path 77" d="M419.318,270,442.4,297.02a30.6,30.6,0,0,1,7.085,23.78l-6.281,48.8a6.062,6.062,0,0,1-7.066,5.2h0a6.062,6.062,0,0,1-5-6.292l1.174-22.022A27.385,27.385,0,0,0,410.493,318.2h0Z" fill="#ff3040"/>
                  <path id="Path_78" data-name="Path 78" d="M309.541,270,286.454,297.02a30.592,30.592,0,0,0-7.084,23.78l6.281,48.8a6.061,6.061,0,0,0,7.065,5.2h0a6.063,6.063,0,0,0,5-6.292l-1.175-22.022A27.386,27.386,0,0,1,318.366,318.2h0Z" fill="#ff3040"/>
                </g>
                <g id="Group_100" data-name="Group 100">
                  <path id="Path_79" data-name="Path 79" d="M434.076,287.273,419.318,270l-8.825,48.2h0a27.31,27.31,0,0,1,7.316,2.644C423.019,309.551,428.386,298.334,434.076,287.273Z" fill="#cf0019"/>
                  <path id="Path_80" data-name="Path 80" d="M297.182,300.9c5.018,6.476,10.152,12.86,15.263,19.264a27.3,27.3,0,0,1,5.921-1.969h0L309.541,270,290.9,291.821C293.213,295.029,295.277,298.447,297.182,300.9Z" fill="#cf0019"/>
                </g>
                <path id="Path_81" data-name="Path 81" d="M320.889,341.28s-14.255-36.657-13.576-75.349-8.825-124.224,18.328-179.887C341.84,52.837,352,39.2,357.559,33.6a5.838,5.838,0,0,1,8.824.632c8.533,11.434,30.526,41.476,35.964,54.528,6.789,16.292,22.4,47.517,16.971,181.245,0,0-2.715,49.553-12.219,71.276Z" fill="#fff"/>
                <path id="Path_82" data-name="Path 82" d="M321.721,130.059c3.954-26.58,10.412-54.132,26.427-76.251a7.388,7.388,0,0,1,2.307-2.1C354.508,45.118,358.7,38.614,362.711,32a5.781,5.781,0,0,0-5.152,1.6C352,39.2,341.84,52.837,325.641,86.044c-27.153,55.663-17.649,141.194-18.328,179.887s13.576,75.349,13.576,75.349l86.925-.4c-84.653-.925-91.5-76.848-92.614-118.865C314.385,191.319,317.206,160.409,321.721,130.059Z" fill="#95a1e6" opacity="0.37"/>
                <path id="Path_83" data-name="Path 83" d="M391.353,86.752q5.517.87,11,2.03l-.01-.023c-5.438-13.052-27.431-43.094-35.964-54.528a5.838,5.838,0,0,0-8.824-.632C352,39.2,341.84,52.837,325.641,86.044c-.347.711-.663,1.448-1,2.169C346.347,82.8,369.347,83.282,391.353,86.752Z" fill="#ff3040"/>
                <path id="Path_84" data-name="Path 84" d="M348.708,61.576c6.425-8.491,12.417-17.284,18.849-25.767-.411-.554-.809-1.089-1.174-1.578a5.838,5.838,0,0,0-8.824-.632C352,39.2,341.84,52.837,325.641,86.044c-.347.711-.663,1.448-1,2.169,3.063-.764,6.154-1.4,9.263-1.935C337.327,77.288,342.89,69.266,348.708,61.576Z" fill="#cf0019"/>
                <path id="Path_85" data-name="Path 85" d="M404.113,352.448H324.549a6.476,6.476,0,0,1-6.477-6.476h0a6.476,6.476,0,0,1,6.477-6.476h79.564a6.475,6.475,0,0,1,6.476,6.476h0A6.475,6.475,0,0,1,404.113,352.448Z" fill="#18004c"/>
                <path id="Path_86" data-name="Path 86" d="M362.481,116.53a34.231,34.231,0,1,0,34.231,34.231A34.232,34.232,0,0,0,362.481,116.53Zm0,58.492a24.261,24.261,0,1,1,24.26-24.261A24.261,24.261,0,0,1,362.481,175.022Z" fill="#18004c"/>
                <circle id="Ellipse_160" data-name="Ellipse 160" cx="24.26" cy="24.26" r="24.26" transform="matrix(0.974, -0.225, 0.225, 0.974, 333.39, 132.571)" fill="#95a1e6" opacity="0.37"/>
                <g id="Group_101" data-name="Group 101" opacity="0.6">
                  <path id="Path_87" data-name="Path 87" d="M338.3,152.452a24.144,24.144,0,0,0,29.977,21.842Q353.147,163.579,338.3,152.452Z" fill="#fcfaf5"/>
                  <path id="Path_88" data-name="Path 88" d="M381.03,166.382a24.246,24.246,0,1,0-39.1-28.466Q361.225,152.5,381.03,166.382Z" fill="#fcfaf5"/>
                </g>
                <g id="Group_106" data-name="Group 106">
                  <g id="Group_102" data-name="Group 102">
                    <path id="Path_89" data-name="Path 89" d="M364.793,121.618a2.313,2.313,0,1,0-2.312,2.313A2.313,2.313,0,0,0,364.793,121.618Z" fill="none" stroke="#4f6aff" stroke-miterlimit="10" stroke-width="0.348"/>
                    <path id="Path_90" data-name="Path 90" d="M364.793,179.9a2.313,2.313,0,1,0-2.312,2.313A2.313,2.313,0,0,0,364.793,179.9Z" fill="none" stroke="#4f6aff" stroke-miterlimit="10" stroke-width="0.348"/>
                  </g>
                  <g id="Group_103" data-name="Group 103">
                    <path id="Path_91" data-name="Path 91" d="M384.723,131.79a2.313,2.313,0,1,0-3.271,0A2.313,2.313,0,0,0,384.723,131.79Z" fill="none" stroke="#4f6aff" stroke-miterlimit="10" stroke-width="0.348"/>
                    <circle id="Ellipse_161" data-name="Ellipse 161" cx="2.313" cy="2.313" r="2.313" transform="translate(339.561 169.055)" fill="none" stroke="#4f6aff" stroke-miterlimit="10" stroke-width="0.348"/>
                  </g>
                  <g id="Group_104" data-name="Group 104">
                    <path id="Path_92" data-name="Path 92" d="M391.623,153.074a2.313,2.313,0,1,0-2.313-2.313A2.312,2.312,0,0,0,391.623,153.074Z" fill="none" stroke="#4f6aff" stroke-miterlimit="10" stroke-width="0.348"/>
                    <path id="Path_93" data-name="Path 93" d="M333.338,153.074a2.313,2.313,0,1,0-2.313-2.313A2.313,2.313,0,0,0,333.338,153.074Z" fill="none" stroke="#4f6aff" stroke-miterlimit="10" stroke-width="0.348"/>
                  </g>
                  <g id="Group_105" data-name="Group 105">
                    <path id="Path_94" data-name="Path 94" d="M381.452,173a2.313,2.313,0,1,0,0-3.271A2.313,2.313,0,0,0,381.452,173Z" fill="none" stroke="#4f6aff" stroke-miterlimit="10" stroke-width="0.348"/>
                    <circle id="Ellipse_162" data-name="Ellipse 162" cx="2.313" cy="2.313" r="2.313" transform="translate(339.561 127.841)" fill="none" stroke="#4f6aff" stroke-miterlimit="10" stroke-width="0.348"/>
                  </g>
                </g>
                <path id="Path_95" data-name="Path 95" d="M306.97,199.795s57.361-19.428,111.021-.925" fill="none" stroke="#4f6aff" stroke-miterlimit="10" stroke-width="0.696" stroke-dasharray="5.564"/>
                <path id="Path_96" data-name="Path 96" d="M313.982,116.344c16.045-4.223,57.172-12.608,97.585-.922" fill="none" stroke="#4f6aff" stroke-miterlimit="10" stroke-width="0.696" stroke-dasharray="5.564"/>
                <path id="Path_97" data-name="Path 97" d="M306.97,213.673s57.361-19.429,111.021-.925" fill="none" stroke="#4f6aff" stroke-miterlimit="10" stroke-width="0.696" stroke-dasharray="5.564"/>
              </g>
              <g id="Group_108" data-name="Group 108">
                <path id="Path_98" data-name="Path 98" d="M385.164,408.942a44.015,44.015,0,0,0,41.067,35.553" fill="none" stroke="#fff" stroke-miterlimit="10" stroke-width="2" opacity="0.79"/>
                <path id="Path_99" data-name="Path 99" d="M343.131,413.646a55.542,55.542,0,0,1-32.115,38.906" fill="none" stroke="#fff" stroke-miterlimit="10" stroke-width="2" opacity="0.79"/>
                <path id="Path_100" data-name="Path 100" d="M347.075,436.916q-3.99,7.982-7.981,15.962" fill="none" stroke="#fff" stroke-miterlimit="10" stroke-width="2" opacity="0.79"/>
                <path id="Path_101" data-name="Path 101" d="M365.019,446.889l1.326,7.981" fill="none" stroke="#fff" stroke-miterlimit="10" stroke-width="2" opacity="0.79"/>
                <path id="Path_102" data-name="Path 102" d="M378.42,436.215a32.779,32.779,0,0,0,11.823,16.069" fill="none" stroke="#fff" stroke-miterlimit="10" stroke-width="2" opacity="0.79"/>
              </g>
            </g>
          </g>
        </g>
        <g id="Group_129" data-name="Group 129">
          <g id="Group_114" data-name="Group 114">
            <rect id="Rectangle_527" data-name="Rectangle 527" width="81.289" height="5.871" transform="translate(270.068 405.135) rotate(180)" fill="#18004c"/>
            <path id="Path_103" data-name="Path 103" d="M236.423,468.585l32.516-63.225H189l-32.516,63.225" fill="none" stroke="#18004c" stroke-miterlimit="10" stroke-width="0.679"/>
            <line id="Line_24" data-name="Line 24" x1="79.482" transform="translate(177.263 427.941)" fill="none" stroke="#18004c" stroke-miterlimit="10" stroke-width="0.679"/>
            <line id="Line_25" data-name="Line 25" x1="79.482" transform="translate(163.263 455.037)" fill="none" stroke="#18004c" stroke-miterlimit="10" stroke-width="0.679"/>
            <g id="Group_112" data-name="Group 112">
              <path id="Path_104" data-name="Path 104" d="M237.483,470.036l4.741-9.258-4.447.13-4.741,9.258Z" fill="#4f6aff"/>
            </g>
            <g id="Group_113" data-name="Group 113">
              <path id="Path_105" data-name="Path 105" d="M158.452,470.036l4.741-9.258-4.447.13-4.741,9.258Z" fill="#4f6aff"/>
            </g>
            <line id="Line_26" data-name="Line 26" x1="17.161" y1="58.934" transform="translate(268.939 405.361)" fill="none" stroke="#18004c" stroke-miterlimit="10" stroke-width="0.679"/>
            <line id="Line_27" data-name="Line 27" x1="17.161" y1="58.934" transform="translate(189.231 405.361)" fill="none" stroke="#18004c" stroke-miterlimit="10" stroke-width="0.679"/>
          </g>
          <g id="Group_128" data-name="Group 128">
            <g id="Group_116" data-name="Group 116">
              <path id="Path_106" data-name="Path 106" d="M281.76,219.73s-17.213,26.332-21.888,23.034c0,0-7.525-3.839-4.829-19.294.005-1.5.013-2.541-.04-2.777,0,0-1.159-15.258-3.668-18.418-.275-.347-1.106-.992-1-1.02,7.659-1.915,10.729,14.4,12.841,23.311.087.369,14.57-10.93,14.57-10.93s7.659-10.127,8.194-9.548c.774.838-2.194,5.354-2.194,5.354a1.528,1.528,0,0,0,.774.775,1.834,1.834,0,0,1,1.1,1.419c.194.774.968,1.226,1.1,1.677S283.394,218.548,281.76,219.73Z" fill="#feb38c"/>
              <path id="Path_107" data-name="Path 107" d="M278.009,213.571s1.549-4.387,2.194-4.258,3.484,1.355,3.419,2.452-2.516.193-2.516.193.452,2.452-.774,2.775S278.009,213.571,278.009,213.571Z" fill="#feb38c"/>
              <g id="Group_115" data-name="Group 115">
                <path id="Path_108" data-name="Path 108" d="M281.816,211.765s-.065,1.1.838,1.29a1.087,1.087,0,0,0,1.355.9s-.322.516.387.645C284.4,214.6,281.364,217.894,281.816,211.765Z" fill="#f79a88"/>
                <path id="Path_109" data-name="Path 109" d="M281.233,209.639q1.184.552,2.325,1.188c.287.16.614.413.547.733a.652.652,0,0,1-.341.394,3.45,3.45,0,0,1-1.83.324c-.117,0-.26.01-.312.115a.313.313,0,0,0-.005.194l.222,1.173" fill="none" stroke="#ec7a65" stroke-miterlimit="10" stroke-width="0.291"/>
                <path id="Path_110" data-name="Path 110" d="M283.816,209.313c-.206.226-.791.781-1,1.007" fill="none" stroke="#ec7a65" stroke-miterlimit="10" stroke-width="0.291"/>
                <path id="Path_111" data-name="Path 111" d="M285.126,210.942a10,10,0,0,1-2.088,1.84,1.544,1.544,0,0,1-.573.265.582.582,0,0,1-.571-.194" fill="none" stroke="#ec7a65" stroke-miterlimit="10" stroke-width="0.291"/>
                <path id="Path_112" data-name="Path 112" d="M282.6,213.055c.076.4.2.862.566,1.034.416.193.891-.093,1.238-.393a14.746,14.746,0,0,0,1.41-1.544" fill="none" stroke="#ec7a65" stroke-miterlimit="10" stroke-width="0.291"/>
                <path id="Path_113" data-name="Path 113" d="M283.945,213.765c-.01.273.2.973.459,1.063a1.255,1.255,0,0,0,.8-.036c.377-.127.472-.084.737-.382" fill="none" stroke="#ec7a65" stroke-miterlimit="10" stroke-width="0.291"/>
              </g>
            </g>
            <g id="Group_119" data-name="Group 119">
              <path id="Path_114" data-name="Path 114" d="M233.448,212.249s-10.212-1.212-8.973-1.832,9.77-3.817,11.438-4.771a4.979,4.979,0,0,1,2.812-.811l12.091-28.043c.205-1.648-2.777-5.6-4.223-6.423A19.158,19.158,0,0,0,233.28,168.7c-14.561,3.025-37.711,13.432-45.452,20.907,0,0,34.947,33.166,46.288,31.578" fill="#18004c"/>
              <path id="Path_115" data-name="Path 115" d="M185.292,186.807c19.354-9.61,42.426-17.762,50.052-17.752" fill="none" stroke="#18004c" stroke-miterlimit="10" stroke-width="0.287"/>
              <path id="Path_116" data-name="Path 116" d="M235.4,183.07a.387.387,0,0,1-.387.4c-.919,0-3.038-.2-3.337,2.2-.3,2.428,2.011,3.794,3.4,3.87a3.1,3.1,0,0,1,1.6.4c.838.91,1.231,2.9,1.875,5.382a7.044,7.044,0,0,1-2.881,7.982s14.354,7.057,14.22-.017c0,0-1.134-13.014-1.068-13.08,1.121-1.121,5.473-1.6,2.736-10.878-2.534-8.594-8.839-7.982-10.441-7.7C239.767,171.874,235.072,172.169,235.4,183.07Z" fill="#feb38c"/>
              <path id="Path_117" data-name="Path 117" d="M245.555,170.79s-8.809,11.647-10.344,12.613C235.211,183.4,229.205,169.189,245.555,170.79Z" fill="#18004c"/>
              <g id="Group_117" data-name="Group 117">
                <path id="Path_118" data-name="Path 118" d="M232.718,186.369s1.443-3.045,3.274,1.035" fill="#ec7a65"/>
                <path id="Path_119" data-name="Path 119" d="M243.377,183.081a2.157,2.157,0,1,1-2.107,2.2A2.156,2.156,0,0,1,243.377,183.081Z" fill="#f79a88"/>
                <path id="Path_120" data-name="Path 120" d="M252.362,183.886a2.157,2.157,0,0,1-.721-3.973A10.5,10.5,0,0,1,252.362,183.886Z" fill="#f79a88"/>
                <path id="Path_121" data-name="Path 121" d="M250.548,182.774l-3.288,1.638s1.609,1.17,2.477.53A2.9,2.9,0,0,0,250.548,182.774Z" fill="#fff"/>
                <path id="Path_122" data-name="Path 122" d="M248.031,180.387l.52,2.347,1.142-.5a.3.3,0,0,0,.062-.518Z" fill="#ec7a65"/>
                <path id="Path_123" data-name="Path 123" d="M243.812,179.507c-.285.4-.12-.992.349-1.312a.965.965,0,0,1,1.349.154A3.018,3.018,0,0,0,243.812,179.507Z" fill="#1e274d"/>
                <path id="Path_124" data-name="Path 124" d="M250.012,177.161c.472.132-.527-.85-1.092-.806a.965.965,0,0,0-.956.964A3.01,3.01,0,0,1,250.012,177.161Z" fill="#1e274d"/>
                <path id="Path_125" data-name="Path 125" d="M245.708,181.233c.159.393.442.649.632.573s.217-.458.058-.851-.441-.649-.632-.573S245.55,180.84,245.708,181.233Z" fill="#1e274d"/>
                <path id="Path_126" data-name="Path 126" d="M248.754,179.783c.151.375.421.62.6.547s.207-.438.055-.813-.421-.62-.6-.546S248.6,179.408,248.754,179.783Z" fill="#1e274d"/>
              </g>
              <path id="Path_127" data-name="Path 127" d="M248.825,190.211a34.561,34.561,0,0,1-6.166.649C240.59,190.726,250.947,202.62,248.825,190.211Z" fill="#1e274d"/>
              <path id="Path_128" data-name="Path 128" d="M244.57,171.882a8.876,8.876,0,0,1-1.486,5.245,13.4,13.4,0,0,1-3.588,4.2,8.6,8.6,0,0,1-5.57,1.713" fill="none" stroke="#18004c" stroke-miterlimit="10" stroke-width="0.287"/>
              <g id="Group_118" data-name="Group 118">
                <path id="Path_129" data-name="Path 129" d="M238.631,192.546a1.852,1.852,0,1,1-1.852-1.852A1.852,1.852,0,0,1,238.631,192.546Z" fill="#fff"/>
                <path id="Path_130" data-name="Path 130" d="M238.631,196.25a1.852,1.852,0,1,1-1.852-1.852A1.852,1.852,0,0,1,238.631,196.25Z" fill="#fff"/>
                <path id="Path_131" data-name="Path 131" d="M239.331,188.49l-2.6,3.725-2.44-3.884Z" fill="#4f6aff"/>
              </g>
            </g>
            <g id="Group_122" data-name="Group 122">
              <g id="Group_120" data-name="Group 120">
                <path id="Path_132" data-name="Path 132" d="M237.975,379.487l1.586,11.261s2.543,7.468,4.9,4.577a23.283,23.283,0,0,1,4.7-4.419l.775-11.708Z" fill="#f5836b"/>
                <path id="Path_133" data-name="Path 133" d="M244.157,379.908l.408,15.317s-7.475,1.122-4.7-3.88l-1.634-10.62Z" fill="#feb38c"/>
                <path id="Path_134" data-name="Path 134" d="M212.171,379.767,208.667,391s-2.667,2.338-3.63,2.278c-1.752-.11-2.67-3.132-2.67-3.132l-.288-10.38Z" fill="#f5836b"/>
                <path id="Path_135" data-name="Path 135" d="M207.122,376.765l-2.45,18.584s-5.024,1.327-2.247-3.676l-.613-14.3Z" fill="#feb38c"/>
                <path id="Path_136" data-name="Path 136" d="M249.944,390.848l9.432,7.645c.482.358.138.961-.552.967l-13.922.113a.814.814,0,0,1-.748-.379l-1.05-2.153c-.3-.622-.907-.672-.852-.014l-.514,2.079c.027.327-3.3.238-3.33-.06a58.775,58.775,0,0,1,.533-9.575.694.694,0,0,1,.624-.482h0a.946.946,0,0,1,.778.214c.94.91,3.944,3.645,5.546,3.092a11.77,11.77,0,0,0,2.9-1.419A.989.989,0,0,1,249.944,390.848Z" fill="#ff3040"/>
                <path id="Path_137" data-name="Path 137" d="M202.237,389.758l-5.355,8.97a1.748,1.748,0,0,0,.78,2.529c1.674,1,3.043,2.985,4.1,3.014,1.9.053,4.864-1.952,6.589-2.7,1.157-.5,2.064-1.244,1.921-2.212l-1.332-9c-.016-.111-.212-.152-.309-.065l-2.051,1.859c-.672.609-2.5.527-2.947-.2-.324-.52-1.082-2.2-1.082-2.2A.209.209,0,0,0,202.237,389.758Z" fill="#ff3040"/>
              </g>
              <path id="Path_138" data-name="Path 138" d="M228.561,239.7a77.591,77.591,0,0,0-8.547,21.582c-2.708,10.594-27.755,100.2-29.032,119.469,3.338.8,29.22.688,31.329.571,6.711-19.231,15.712-81.688,18.589-93.8.442-1.862,3.32-1.453,3.1.448-1.634,13.835-11.659,72.107-16.045,93.389,1.75.892,28.394.693,30.416.44,2.2-23.729,13.869-113.561-3.749-142.68C246.562,238,236.73,239.452,228.561,239.7Z" fill="#4f6aff"/>
              <g id="Group_121" data-name="Group 121">
                <path id="Path_139" data-name="Path 139" d="M252.936,240.282a134.831,134.831,0,0,1,7.806,44.805c0,25.064-8.76,95.877-8.76,95.877" fill="none" stroke="#fff" stroke-miterlimit="10" stroke-width="0.314"/>
                <line id="Line_28" data-name="Line 28" y1="139.134" x2="36.29" transform="translate(196.244 241.448)" fill="none" stroke="#fff" stroke-miterlimit="10" stroke-width="0.314"/>
                <path id="Path_140" data-name="Path 140" d="M237.558,242.149s-.243,22.957-10.547,21.147" fill="none" stroke="#fff" stroke-miterlimit="10" stroke-width="0.314"/>
                <path id="Path_141" data-name="Path 141" d="M258.941,264.349c-10.3,1.811-8.868-22.731-8.868-22.731" fill="none" stroke="#fff" stroke-miterlimit="10" stroke-width="0.314"/>
              </g>
              <path id="Path_142" data-name="Path 142" d="M254.782,240.473l-33.45,27.237s-.185-17.447,5.708-28.509Z" fill="#1e274d" opacity="0.21" style="mix-blend-mode: multiply;isolation: isolate"/>
            </g>
            <g id="Group_124" data-name="Group 124">
              <path id="Path_143" data-name="Path 143" d="M252.844,202.268c-.235.569,6.354,16.995,6.075,22.573-.282,5.62-.16,13.658.139,14.5,0,0-8.32,4.857-32.374,1.069-7.4-6.47-.9-28.459,1.585-35.421,0,0,4.734-2.37,6.773-2.519A25.44,25.44,0,0,0,252.844,202.268Z" fill="#18004c"/>
              <g id="Group_123" data-name="Group 123">
                <path id="Path_144" data-name="Path 144" d="M234.982,202.448l3.407-4.456a44.6,44.6,0,0,0,10.153,5.014l-.075,7.861a.314.314,0,0,1-.458.248C246.073,210.119,237.546,206.24,234.982,202.448Z" fill="#fff"/>
                <path id="Path_145" data-name="Path 145" d="M249.36,197.748s1.015,3.6-.9,5.077l2.67,7.716c.191.6.62.566.686.257.417-1.966,1.191-6.239.668-8.8Z" fill="#fff"/>
                <path id="Path_146" data-name="Path 146" d="M250.643,211.186c0,.576-.249,1.044-.557,1.044s-.557-.468-.557-1.044.249-1.045.557-1.045S250.643,210.609,250.643,211.186Z" fill="#fff"/>
                <path id="Path_147" data-name="Path 147" d="M250.921,215.641c0,.577-.249,1.045-.557,1.045s-.557-.468-.557-1.045.25-1.044.557-1.044S250.921,215.065,250.921,215.641Z" fill="#fff"/>
                <path id="Path_148" data-name="Path 148" d="M251.134,220.549c0,.577-.249,1.044-.557,1.044s-.557-.467-.557-1.044.25-1.044.557-1.044S251.134,219.972,251.134,220.549Z" fill="#fff"/>
                <ellipse id="Ellipse_163" data-name="Ellipse 163" cx="0.557" cy="1.044" rx="0.557" ry="1.044" transform="translate(250.02 224.922)" fill="#fff"/>
                <path id="Path_149" data-name="Path 149" d="M251.134,231.383c0,.577-.249,1.044-.557,1.044s-.557-.467-.557-1.044.25-1.045.557-1.045S251.134,230.806,251.134,231.383Z" fill="#fff"/>
                <ellipse id="Ellipse_164" data-name="Ellipse 164" cx="0.557" cy="1.044" rx="0.557" ry="1.044" transform="translate(250.02 235.755)" fill="#fff"/>
              </g>
            </g>
            <g id="Group_127" data-name="Group 127">
              <g id="Group_125" data-name="Group 125">
                <path id="Rectangle_528" data-name="Rectangle 528" d="M0,0H31.887a5.025,5.025,0,0,1,5.025,5.025v18.88a0,0,0,0,1,0,0H0a0,0,0,0,1,0,0V0A0,0,0,0,1,0,0Z" transform="matrix(0.842, 0.539, -0.539, 0.842, 214.033, 250.676)" fill="#98ccfe"/>
                <path id="Path_150" data-name="Path 150" d="M227.4,270.521a4.277,4.277,0,1,1-4.277-4.277A4.277,4.277,0,0,1,227.4,270.521Z" fill="#fff"/>
              </g>
              <g id="Group_126" data-name="Group 126">
                <path id="Path_151" data-name="Path 151" d="M221.2,254.636s-5.009,2.326-1.138,16.53a5.377,5.377,0,0,1,.23,2.372l-.87,6.105c-.13.654-.219,1.531.336,1.9.694.462,4.65,4.1,5.131,4.258.977.326-.089-4.5.071-7.042a24.1,24.1,0,0,1,.2,2.511l.121,1.985c1.182-.541,1.158-2.82,1.343-3.588a2.973,2.973,0,0,0-.074-1.938,16.739,16.739,0,0,1-1.729-5.367c-.1-1.182.732-5.567,1.418-13.735Z" fill="#1e274d" opacity="0.6"/>
                <path id="Path_152" data-name="Path 152" d="M220.558,220.066c-9.289,51.878-3.256,61.731-2.648,62.135.761.507,5.1,4.491,5.624,4.667,1.071.357-.1-4.932.078-7.718a26.358,26.358,0,0,1,.215,2.752l.132,2.175c1.3-.593,1.27-3.091,1.472-3.932a3.262,3.262,0,0,0-.08-2.124,18.358,18.358,0,0,1-1.9-5.883c-.1-1.3,8.7-43.428,10.248-49.619,2.1-8.413-.544-18.076-3.506-18.4C226.522,203.71,221.327,215.769,220.558,220.066Z" fill="#feb38c"/>
              </g>
            </g>
          </g>
        </g>
        <g id="Group_139" data-name="Group 139">
          <g id="Group_130" data-name="Group 130">
            <path id="Path_153" data-name="Path 153" d="M277.7,164.368h17.1l5.59,6.578V155.159c0-5.087-3.091-9.21-6.9-9.21H277.7c-3.813,0-6.9,4.123-6.9,9.21h0C270.8,160.245,273.888,164.368,277.7,164.368Z" fill="#ff3040"/>
            <rect id="Rectangle_529" data-name="Rectangle 529" width="2.899" height="6.765" transform="translate(283.876 152.707)" fill="#fff"/>
            <rect id="Rectangle_530" data-name="Rectangle 530" width="2.899" height="4.565" transform="translate(279.775 154.908)" fill="#fff"/>
            <rect id="Rectangle_531" data-name="Rectangle 531" width="2.899" height="8.795" transform="translate(288.31 150.678)" fill="#fff"/>
          </g>
          <g id="Group_138" data-name="Group 138">
            <g id="Group_132" data-name="Group 132">
              <path id="Path_154" data-name="Path 154" d="M469.294,206.094a11.891,11.891,0,0,0-23.782,0c0,6.567,11.316,16.878,11.316,16.878S469.294,212.661,469.294,206.094Z" fill="#4f6aff"/>
              <path id="Path_155" data-name="Path 155" d="M456.828,222.972s12.466-10.311,12.466-16.878A11.891,11.891,0,0,0,457.4,194.2" fill="#18004c"/>
              <path id="Path_156" data-name="Path 156" d="M453.951,217.6s1.534-12.467-.192-11.7-2.685,2.685-.767,3.069,9.589,0,9.589,0,.684-2.182-.575-2.685c-1.918-.767-1.918,6.521-2.3,11.7" fill="none" stroke="#fff" stroke-miterlimit="10" stroke-width="0.317"/>
              <g id="Group_131" data-name="Group 131">
                <path id="Path_157" data-name="Path 157" d="M461.622,220.287h-9.589a1.343,1.343,0,0,1-1.343-1.343h0a1.342,1.342,0,0,1,1.343-1.342h9.589a1.342,1.342,0,0,1,1.343,1.342h0A1.343,1.343,0,0,1,461.622,220.287Z" fill="#18293d"/>
                <path id="Path_158" data-name="Path 158" d="M457.019,226.424h0a5.562,5.562,0,0,1-5.562-5.562V219.9h11.124v.959A5.562,5.562,0,0,1,457.019,226.424Z" fill="#18293d" stroke="#eaebec" stroke-miterlimit="10" stroke-width="0.433"/>
              </g>
            </g>
            <g id="Group_137" data-name="Group 137">
              <g id="Group_133" data-name="Group 133">
                <line id="Line_29" data-name="Line 29" x2="5.405" transform="translate(435.963 206.169)" fill="none" stroke="#fff" stroke-linecap="round" stroke-miterlimit="10" stroke-width="0.813"/>
                <line id="Line_30" data-name="Line 30" x2="5.405" transform="translate(473.799 206.169)" fill="none" stroke="#fff" stroke-linecap="round" stroke-miterlimit="10" stroke-width="0.813"/>
              </g>
              <g id="Group_134" data-name="Group 134">
                <line id="Line_31" data-name="Line 31" x2="3.822" y2="3.822" transform="translate(442.295 190.881)" fill="none" stroke="#fff" stroke-linecap="round" stroke-miterlimit="10" stroke-width="0.813"/>
                <line id="Line_32" data-name="Line 32" x2="3.822" y2="3.822" transform="translate(469.049 217.635)" fill="none" stroke="#fff" stroke-linecap="round" stroke-miterlimit="10" stroke-width="0.813"/>
              </g>
              <g id="Group_135" data-name="Group 135">
                <line id="Line_33" data-name="Line 33" y2="5.405" transform="translate(457.583 184.549)" fill="none" stroke="#fff" stroke-linecap="round" stroke-miterlimit="10" stroke-width="0.813"/>
              </g>
              <g id="Group_136" data-name="Group 136">
                <line id="Line_34" data-name="Line 34" x1="3.822" y2="3.822" transform="translate(469.049 190.881)" fill="none" stroke="#fff" stroke-linecap="round" stroke-miterlimit="10" stroke-width="0.813"/>
                <line id="Line_35" data-name="Line 35" x1="3.822" y2="3.822" transform="translate(442.295 217.635)" fill="none" stroke="#fff" stroke-linecap="round" stroke-miterlimit="10" stroke-width="0.813"/>
              </g>
            </g>
          </g>
        </g>
        <g id="Group_150" data-name="Group 150">
          <g id="Group_142" data-name="Group 142">
            <path id="Path_159" data-name="Path 159" d="M468.453,260.236c-.206-1.652,5.312-21.467,6.109-22.934,2.084-3.839,11.611-4.6,15.738-1.991,6.677,4.228,16.974,23.437,14.887,28.427Z" fill="#ef001d"/>
            <path id="Path_160" data-name="Path 160" d="M488.58,248.9a.387.387,0,0,0,.388.4c.92,0,3.044-.2,3.344,2.207.3,2.434-2.016,3.8-3.411,3.879a3.122,3.122,0,0,0-1.605.4c-.839.913-1.234,2.908-1.879,5.394a7.061,7.061,0,0,0,2.887,8s-14.384,7.072-14.251-.017c0,0,1.137-13.042,1.07-13.109-1.122-1.123-5.484-1.605-2.742-10.9,2.54-8.611,8.859-8,10.465-7.714C484.2,237.682,488.906,237.978,488.58,248.9Z" fill="#ff9c75"/>
            <path id="Path_161" data-name="Path 161" d="M488.961,248.726a.388.388,0,0,0,.388.4c.921-.005,3.044-.2,3.344,2.207.3,2.433-2.015,3.8-3.411,3.879a3.115,3.115,0,0,0-1.605.4c-.839.913-1.233,2.908-1.879,5.394a7.062,7.062,0,0,0,2.887,8s-14.384,7.073-14.25-.017c0,0,1.137-13.042,1.07-13.109-1.123-1.122-5.484-1.6-2.742-10.9,2.54-8.612,8.858-8,10.464-7.714C484.582,237.506,489.288,237.8,488.961,248.726Z" fill="#ff9c75"/>
            <path id="Path_162" data-name="Path 162" d="M479.269,236.1s2.742,12.433,6.109,13.72c3.729,1.426,3.383-4.5,3.778-.647C489.156,249.173,495.893,230.892,479.269,236.1Z" fill="#ef001d"/>
            <g id="Group_141" data-name="Group 141">
              <path id="Path_163" data-name="Path 163" d="M491.266,252.208s-1.446-3.051-3.282,1.037" fill="#e6713e"/>
              <path id="Path_164" data-name="Path 164" d="M480.583,248.913a2.161,2.161,0,1,0,2.112,2.209A2.161,2.161,0,0,0,480.583,248.913Z" fill="#ff8752"/>
              <path id="Path_165" data-name="Path 165" d="M471.579,249.719a2.161,2.161,0,0,0,.722-3.981A10.528,10.528,0,0,0,471.579,249.719Z" fill="#ff8752"/>
              <path id="Path_166" data-name="Path 166" d="M476.454,245.3l-.907,3.206L474.4,248Z" fill="#e6713e"/>
              <path id="Path_167" data-name="Path 167" d="M480.406,245.455c.039-.348.147-.792-.026-1.046a3.514,3.514,0,0,0-.837-.68c-.47-.321-.979-.243-1.019.247.157.276.823.21,1.366.729A4.215,4.215,0,0,1,480.406,245.455Z"/>
              <path id="Path_168" data-name="Path 168" d="M473.826,242.776c-.293.083.272-.385.68-.521a2.043,2.043,0,0,1,1.089,0c.56.11.817.52.384.838C475.51,243.439,474.961,242.458,473.826,242.776Z"/>
              <path id="Path_169" data-name="Path 169" d="M478.247,247.061c-.159.394-.442.651-.633.574s-.217-.459-.058-.853.442-.651.633-.573S478.406,246.667,478.247,247.061Z"/>
              <path id="Path_170" data-name="Path 170" d="M475.2,245.608c-.152.376-.422.621-.605.548s-.207-.438-.055-.814.423-.622.605-.548S475.347,245.232,475.2,245.608Z"/>
              <path id="Path_171" data-name="Path 171" d="M475.123,256.058a34.566,34.566,0,0,0,6.18.651C483.377,256.575,474.427,261.876,475.123,256.058Z"/>
              <g id="Group_140" data-name="Group 140">
                <path id="Path_172" data-name="Path 172" d="M473.76,248.719s-.407,1.633.3,1.9a2.579,2.579,0,0,0,2.4-.5Z" fill="#fcfaf5"/>
              </g>
            </g>
          </g>
          <ellipse id="Ellipse_165" data-name="Ellipse 165" cx="42.878" cy="2.467" rx="42.878" ry="2.467" transform="translate(455.359 461.024)" fill="#e5f1ff"/>
          <g id="Group_143" data-name="Group 143">
            <path id="Path_173" data-name="Path 173" d="M477.376,445.855l-1.493,10.608s-2.4,7.035-4.621,4.312a21.921,21.921,0,0,0-4.427-4.163l-.73-11.028Z" fill="#ff7b4d"/>
            <path id="Path_174" data-name="Path 174" d="M471.554,446.252l-.385,14.428s7.041,1.057,4.425-3.655l1.539-10Z" fill="#ff8752"/>
            <path id="Path_175" data-name="Path 175" d="M512.831,445.04l3.3,10.582s2.512,2.2,3.419,2.146c1.65-.1,2.515-2.95,2.515-2.95l.271-9.778Z" fill="#ff7b4d"/>
            <path id="Path_176" data-name="Path 176" d="M517.586,442.212l2.309,17.506s4.732,1.25,2.116-3.463l.577-13.466Z" fill="#ff8752"/>
            <path id="Path_177" data-name="Path 177" d="M466.1,456.557l-8.884,7.2c-.454.337-.13.906.52.911l13.114.107a.765.765,0,0,0,.7-.358l.989-2.027c.286-.586.855-.634.8-.013l.484,1.958c-.026.308,3.109.224,3.137-.057a55.38,55.38,0,0,0-.5-9.019.65.65,0,0,0-.587-.453h0a.892.892,0,0,0-.733.2c-.885.856-3.715,3.434-5.224,2.912a11.1,11.1,0,0,1-2.729-1.336A.93.93,0,0,0,466.1,456.557Z" fill="#4f6aff"/>
            <path id="Path_178" data-name="Path 178" d="M522.188,454.451l5.044,8.45a1.646,1.646,0,0,1-.734,2.382c-1.578.939-2.867,2.812-3.859,2.839-1.793.05-4.581-1.839-6.206-2.547-1.09-.475-1.945-1.172-1.81-2.084l1.255-8.475c.015-.1.2-.144.291-.061l1.932,1.751a2.267,2.267,0,0,0,2.776-.19c.3-.49,1.019-2.071,1.019-2.071A.2.2,0,0,1,522.188,454.451Z" fill="#4f6aff"/>
          </g>
          <g id="Group_144" data-name="Group 144">
            <path id="Path_179" data-name="Path 179" d="M495.431,305.65A77.719,77.719,0,0,1,504,327.278c2.714,10.617,17.861,100.331,19.141,119.641-3.346.807-8.416.447-10.53.329-6.726-19.272-26.659-81.535-29.542-93.676-.444-1.866-3.327-1.457-3.1.448,1.636,13.865-.921,70.194-2.237,93.557-1.755.894-10.139.729-12.165.475-2.2-23.78-13.9-113.806,3.756-142.988C477.392,303.951,487.244,305.406,495.431,305.65Z" fill="#1b1b25"/>
            <path id="Path_180" data-name="Path 180" d="M470.372,308.226s-7.191,17.8-7.191,42.914,4.674,88.869,4.674,88.869" fill="none" stroke="#fff" stroke-miterlimit="10" stroke-width="0.315"/>
            <line id="Line_36" data-name="Line 36" x1="25.765" y1="132.274" transform="translate(491.45 307.406)" fill="none" stroke="#fff" stroke-miterlimit="10" stroke-width="0.315"/>
            <path id="Path_181" data-name="Path 181" d="M486.415,308.109s.244,23.007,10.57,21.193" fill="none" stroke="#fff" stroke-miterlimit="10" stroke-width="0.315"/>
            <path id="Path_182" data-name="Path 182" d="M469.436,308.694l33.24,25.031s1.388-13.508-4.517-24.6Z" opacity="0.21" style="mix-blend-mode: multiply;isolation: isolate"/>
            <path id="Path_183" data-name="Path 183" d="M464.986,330.357c10.326,1.814,8.665-21.077,8.665-21.077" fill="none" stroke="#fff" stroke-miterlimit="10" stroke-width="0.315"/>
          </g>
          <line id="Line_37" data-name="Line 37" x1="13.48" y1="0.309" transform="translate(464.576 440.029)" fill="none" stroke="#fff" stroke-miterlimit="10" stroke-width="0.315"/>
          <line id="Line_38" data-name="Line 38" x1="12.175" y1="0.329" transform="translate(510.304 440.009)" fill="none" stroke="#fff" stroke-miterlimit="10" stroke-width="0.315"/>
          <g id="Group_146" data-name="Group 146">
            <path id="Path_184" data-name="Path 184" d="M433.508,292.469s30.922,20.586,34.429,15.435c0,0,4.022-5.911-4.638-20.642-.579-1.529-.984-2.588-1.02-2.848,0,0,9.242-12.364,10.591-16.546.149-.459.75-1.435.626-1.42-8.544.975-8.63,20.809-16.811,27.988-.311.273-20.306-8.522-20.306-8.522s-11.683-7.4-12.007-6.605c-.469,1.151,4.285,4.622,4.285,4.622a1.657,1.657,0,0,1-.494,1.086,2,2,0,0,0-.576,1.867c.1.863-.518,1.62-.477,2.13S431.389,291.887,433.508,292.469Z" fill="#ff9c75"/>
            <path id="Path_185" data-name="Path 185" d="M436.091,285.947s-3.256-3.882-3.865-3.5-3.035,2.714-2.55,3.808,2.64-.765,2.64-.765.477,2.673,1.851,2.533S436.091,285.947,436.091,285.947Z" fill="#ff9c75"/>
            <g id="Group_145" data-name="Group 145">
              <path id="Path_186" data-name="Path 186" d="M431.519,285.56s.485,1.094-.362,1.637a1.184,1.184,0,0,1-1.037,1.439s.527.4-.148.806C429.972,289.442,434.323,291.638,431.519,285.56Z" fill="#ff8752"/>
              <path id="Path_187" data-name="Path 187" d="M431.3,283.169q-1,1.016-1.917,2.1c-.231.272-.469.655-.277.957a.711.711,0,0,0,.5.271,3.769,3.769,0,0,0,1.99-.369c.119-.047.269-.09.362,0a.331.331,0,0,1,.08.2l.222,1.28" fill="none" stroke="#e6713e" stroke-miterlimit="10" stroke-width="0.317"/>
              <path id="Path_188" data-name="Path 188" d="M428.542,283.824c.3.152,1.1.495,1.4.646" fill="none" stroke="#e6713e" stroke-miterlimit="10" stroke-width="0.317"/>
              <path id="Path_189" data-name="Path 189" d="M427.828,285.986a10.9,10.9,0,0,0,2.833,1.078,1.68,1.68,0,0,0,.686.052.637.637,0,0,0,.508-.416" fill="none" stroke="#e6713e" stroke-miterlimit="10" stroke-width="0.317"/>
              <path id="Path_190" data-name="Path 190" d="M431.21,287.176a1.442,1.442,0,0,1-.181,1.271,1.348,1.348,0,0,1-1.414.073,16.128,16.128,0,0,1-2.028-1.036" fill="none" stroke="#e6713e" stroke-miterlimit="10" stroke-width="0.317"/>
              <path id="Path_191" data-name="Path 191" d="M430.112,288.414c.114.275.166,1.07-.062,1.26a1.364,1.364,0,0,1-.833.27c-.434.015-.515.1-.9-.108" fill="none" stroke="#e6713e" stroke-miterlimit="10" stroke-width="0.317"/>
            </g>
          </g>
          <path id="Path_192" data-name="Path 192" d="M473.6,265.243s-4.188.622-7.027,6.112c-2.253,4.354-10.8,22.5-10.8,22.5l-16.93-7.261L437.3,297.176s26.109,15.728,30.6,12.241S475.764,270.842,473.6,265.243Z" fill="#fff"/>
          <g id="Group_147" data-name="Group 147">
            <path id="Path_193" data-name="Path 193" d="M474.361,264.943c.236.57-9.633,20.231-9.353,25.821.282,5.632,4.129,15.107,3.829,15.954,0,0,4.37,3.448,28.476-.348,7.411-6.484.9-28.52-1.589-35.5,0,0-6.562-.94-9.345-4.327C486.379,266.545,475.663,274.857,474.361,264.943Z" fill="#fff"/>
          </g>
          <g id="Group_148" data-name="Group 148" opacity="0.37">
            <path id="Path_194" data-name="Path 194" d="M497.592,276.75c2.694,9.43,5.624,24.456-.279,29.62-15.221,2.4-22.568,1.9-25.919,1.218C480.329,297.474,489.208,287.317,497.592,276.75Z" fill="#95a1e6"/>
          </g>
          <g id="Group_149" data-name="Group 149">
            <path id="Path_195" data-name="Path 195" d="M478.275,310.247l-14.588-17.823-15.527.129,11.91,16.416,7.02,1C467.53,309.992,478.275,310.247,478.275,310.247Z" fill="#4f6aff"/>
            <path id="Path_196" data-name="Path 196" d="M469.883,299.965v2.625l3.5,1.293Z" fill="#020f2b"/>
          </g>
          <path id="Path_197" data-name="Path 197" d="M484.91,313.807a147.929,147.929,0,0,1-20.871-5.921c-.789-.274-3.077-1.344-3.069-1.687.019-.785,4.635,1.284,4.46,1.093s-5.675-2.024-5.675-2.658c0-.953,6.1,1.2,6.2,1.233,1.582.476-5.915-1.834-6.073-2.489s3.334.163,3.458.189c0,0,2.948.877,3.057.676s-5.775-3.731-5.157-4.108,5.128,1.739,6.192,2.145a5.486,5.486,0,0,0,3.1.308c.346-.208-.008-1.932-.713-2.6a13.99,13.99,0,0,1,3.926,2.6,15.708,15.708,0,0,1,1.294,1.77l10.109,1.971Z" fill="#ff9c75"/>
          <path id="Path_198" data-name="Path 198" d="M490.7,278.078s-1.432-9.3,3.322-8.543c8.044,1.275,17.228,19.627,13.705,44.012-1.144,7.92-33.239.2-33.239.2l2.059-11.59,16.758,2.782Z" fill="#fff"/>
        </g>
        <g id="Group_177" data-name="Group 177">
          <g id="Group_151" data-name="Group 151">
            <path id="Path_199" data-name="Path 199" d="M542.077,272.374a2.9,2.9,0,1,0,2.9-2.9A2.9,2.9,0,0,0,542.077,272.374Z" fill="#ff3040"/>
            <circle id="Ellipse_166" data-name="Ellipse 166" cx="5.688" cy="5.688" r="5.688" transform="translate(546.545 254.215)" fill="#ff3040"/>
            <path id="Path_200" data-name="Path 200" d="M547.556,263.332l-3.077-1.061a.324.324,0,0,1,.01-.616l6.783-2.105a.324.324,0,0,1,.4.413l-2.284,6.792a.324.324,0,0,1-.616-.006l-1.016-3.208A.325.325,0,0,0,547.556,263.332Z" fill="#1e274d"/>
          </g>
          <g id="Group_176" data-name="Group 176">
            <g id="Group_152" data-name="Group 152">
              <path id="Path_201" data-name="Path 201" d="M524.4,287.336c-.393.14,4.1,6.543,9.878,9.878,0,0,26.527,24.783,31.376,22.972s26.681-49.494,14.722-51.619c0,0-3.116-2.252-5.3.571s-8.745,6.4-18.951,29.975c0,0-14.848-7.671-16.527-8.548,0,0-3.419-8.168-3.989-6.838s.76,4.938.76,4.938-8.548-6.458-9.688-5.888S524.4,287.336,524.4,287.336Z" fill="#feb38c"/>
              <path id="Path_202" data-name="Path 202" d="M560.762,290.593c7.241-13.92,12.572-19.211,14.31-21.455,2.186-2.823,5.3-.571,5.3-.571,8.017,1.425.848,23.322-6.21,38.149A190.754,190.754,0,0,0,560.762,290.593Z" fill="#f5836b"/>
              <path id="Path_203" data-name="Path 203" d="M566.611,271.869s4.593-13.044,13.722-7.568,2.64,32.246-2.357,37.742l-20.15-11.055Z" fill="#4f6aff"/>
              <path id="Path_204" data-name="Path 204" d="M564.669,276.318c1.474-1.342,3.363-3.152,5.3-2.662a4.189,4.189,0,0,1,2.234,1.315c1.1,1.343.907,3.376.105,4.918a26.269,26.269,0,0,1-3.188,4.11,18.413,18.413,0,0,0-4.016,10.487" fill="none" stroke="#fbefdf" stroke-miterlimit="10" stroke-width="0.202"/>
              <path id="Path_205" data-name="Path 205" d="M577.726,301.785c3.252-.631,8.578-21.391,6.639-25.056,0,0-10.008-5.911-10.644-5.252C567.237,278.194,577.726,301.785,577.726,301.785Z" fill="#3054f2"/>
            </g>
            <g id="Group_175" data-name="Group 175">
              <g id="Group_174" data-name="Group 174">
                <path id="Path_206" data-name="Path 206" d="M557.877,462.872c0-1.617,22.784-2.927,50.889-2.927s50.888,1.31,50.888,2.927-22.783,2.928-50.888,2.928S557.877,464.489,557.877,462.872Z" fill="#e5f1ff"/>
                <g id="Group_155" data-name="Group 155">
                  <path id="Path_207" data-name="Path 207" d="M565.8,454.379l.179-9.691,9.332.718-.235,9.313-4.363,7.57-7.855-6.056Z" fill="#feb38c"/>
                  <path id="Path_208" data-name="Path 208" d="M566.7,444.867l7.179,15.254s-1.386-2.391,1.434-4.919V444.867Z" fill="#f5836b"/>
                  <g id="Group_153" data-name="Group 153">
                    <path id="Path_209" data-name="Path 209" d="M564.328,453.713a44,44,0,0,0,5.63,5.183c1.89,1.433,4.7-4.677,5.577-5.441.178-.156.42-.016.45.26l1.1,10H549.447a.639.639,0,0,1-.582-.757C550.33,455.531,564.328,453.713,564.328,453.713Z" fill="#18004c"/>
                  </g>
                  <g id="Group_154" data-name="Group 154">
                    <path id="Path_210" data-name="Path 210" d="M560.963,461.991s-1.077-5.114-4.711-6.057c0,0-5.72,1.885-7.066,6.192h27.592" fill="none" stroke="#fff" stroke-miterlimit="10" stroke-width="0.405"/>
                    <line id="Line_39" data-name="Line 39" x1="5.72" y2="6.259" transform="translate(570.452 455.8)" fill="none" stroke="#fff" stroke-miterlimit="10" stroke-width="0.405"/>
                  </g>
                </g>
                <g id="Group_158" data-name="Group 158">
                  <path id="Path_211" data-name="Path 211" d="M610.132,455.635l-2.871-9.332,10.05-.359,2.154,9.87-3.719,6.475-7.854-6.056Z" fill="#feb38c"/>
                  <path id="Path_212" data-name="Path 212" d="M609.414,446.3l8.256,11.485s-.128.374,2.692-2.153l-3.231-9.691Z" fill="#f5836b"/>
                  <g id="Group_156" data-name="Group 156">
                    <path id="Path_213" data-name="Path 213" d="M608.809,454.939a43.95,43.95,0,0,0,5.63,5.182c1.89,1.434,4.7-4.676,5.577-5.44.178-.156.42-.016.45.26l1.1,10H593.928a.639.639,0,0,1-.582-.757C594.81,456.756,608.809,454.939,608.809,454.939Z" fill="#18004c"/>
                  </g>
                  <g id="Group_157" data-name="Group 157">
                    <path id="Path_214" data-name="Path 214" d="M605.444,463.217s-1.077-5.115-4.711-6.057c0,0-5.721,1.885-7.067,6.192h27.593" fill="none" stroke="#fff" stroke-miterlimit="10" stroke-width="0.405"/>
                    <line id="Line_40" data-name="Line 40" x1="5.72" y2="6.259" transform="translate(614.933 457.026)" fill="none" stroke="#fff" stroke-miterlimit="10" stroke-width="0.405"/>
                  </g>
                </g>
                <g id="Group_159" data-name="Group 159">
                  <path id="Path_215" data-name="Path 215" d="M565.752,333.709s-3.554,42.514-3.888,54.26,2.685,57.616,2.685,57.616l11.877-.038S589,364.492,603.362,336.162Z" fill="#0a0a0a"/>
                  <path id="Path_216" data-name="Path 216" d="M570.65,438.317l1.884-53.839,8.345-31.5" fill="none" stroke="#fff" stroke-miterlimit="10" stroke-width="0.326"/>
                  <path id="Path_217" data-name="Path 217" d="M577.919,445.854l-13.729-.269-.808-7.807h15.882Z" fill="#4f6aff"/>
                </g>
                <g id="Group_160" data-name="Group 160">
                  <path id="Path_218" data-name="Path 218" d="M565.722,333.709s8.219,35.439,16.566,60.512c6.745,20.261,24.614,52.261,24.614,52.261l11.945-.523-12.694-51.136a50.5,50.5,0,0,1-1.447-9.234c-.74-11.774,1.68-35.564,2.692-50.809Z" fill="#18004c"/>
                  <path id="Path_219" data-name="Path 219" d="M612.375,438.586c.27-.808-16.42-49.263-16.42-55.454s.269-27.458.269-27.458" fill="none" stroke="#fff" stroke-miterlimit="10" stroke-width="0.326"/>
                  <path id="Path_220" data-name="Path 220" d="M620.182,445.854l-13.28.628-4.487-7.358,16.69-.808Z" fill="#4f6aff"/>
                </g>
                <g id="Group_165" data-name="Group 165">
                  <path id="Path_221" data-name="Path 221" d="M597.852,259.81s18.565,1.9,19.734,17.271-6.557,79.131-6.557,79.131l-50.608-3.23,4.77-72.267a22.4,22.4,0,0,1,3.5-11c1.941-3.031,4.214-6.467,5.505-6.628l20.818-5.352Z" fill="#4f6aff"/>
                  <path id="Path_222" data-name="Path 222" d="M602.146,261.456c12.383,1.884,14.856,7.938,15.44,15.625,1.169,15.374-6.557,78.593-6.557,78.593l-50.07-2.692" fill="#3054f2"/>
                  <g id="Group_164" data-name="Group 164">
                    <g id="Group_163" data-name="Group 163" clip-path="url(#clip-path)">
                      <g id="Group_162" data-name="Group 162">
                        <path id="Path_223" data-name="Path 223" d="M593.04,262.753a74.132,74.132,0,0,1-4.6,11.474c-2.486,4.959-5.939,9.965-11.21,11.694-2.276.745-4.718.813-7.039,1.4s-4.684,1.9-5.522,4.142" fill="none" stroke="#fbefdf" stroke-miterlimit="10" stroke-width="0.202"/>
                        <g id="Group_161" data-name="Group 161">
                          <path id="Path_224" data-name="Path 224" d="M616.556,325.923c-4.757-.585-10.517-.757-13.277,3.162-2.169,3.081-1.425,7.425-3.18,10.759-2.3,4.364-7.846,5.537-12.182,7.884A21.453,21.453,0,0,0,576.925,365" fill="none" stroke="#fbefdf" stroke-miterlimit="10" stroke-width="0.202"/>
                          <path id="Path_225" data-name="Path 225" d="M563.521,351.868c7.939-3.008,15.877-8.057,18.711-16.059a2.494,2.494,0,0,0,.177-1.527,2.331,2.331,0,0,0-.981-1.143c-2.552-1.794-5.894-2.211-8.388-4.085-1.006-.756-1.837-1.724-2.832-2.495a9.543,9.543,0,0,0-11.608.22" fill="none" stroke="#fbefdf" stroke-miterlimit="10" stroke-width="0.202"/>
                          <path id="Path_226" data-name="Path 226" d="M563.495,295.361a12.932,12.932,0,0,1,10.064,7.3c2.908,6.329.366,14.323,3.856,20.35,3.368,5.815,12.4,7.259,17.38,2.747,2.05-1.857,3.439-4.484,5.865-5.812,4.419-2.417,10.958.174,14.339-3.559" fill="none" stroke="#fbefdf" stroke-miterlimit="10" stroke-width="0.202"/>
                        </g>
                      </g>
                    </g>
                  </g>
                </g>
                <g id="Group_166" data-name="Group 166">
                  <path id="Path_228" data-name="Path 228" d="M592.007,245.9l5.428,14.474L593.4,262.4c-6.191,2.288-11.788.843-12.661-1.724h0l.835-8.637,8.683-7.86a8.5,8.5,0,0,1,1.5,1.3A1.979,1.979,0,0,0,592.007,245.9Z" fill="#feb38c"/>
                  <path id="Path_229" data-name="Path 229" d="M590.254,244.177l-8.683,7.86-.287,3.093s7.268,1.75,9.96-9.826" fill="#f5836b"/>
                </g>
                <g id="Group_171" data-name="Group 171">
                  <g id="Group_167" data-name="Group 167">
                    <path id="Path_230" data-name="Path 230" d="M575.033,318.012l-17.021-30.835a6.45,6.45,0,0,0-4.261-3.228l-38.538-2.582a.8.8,0,0,0-.838,1.2l16.348,29.228a6.458,6.458,0,0,0,4.054,3.134l39.392,4.271A.8.8,0,0,0,575.033,318.012Z" fill="#e5f1ff"/>
                    <path id="Path_231" data-name="Path 231" d="M573.65,320.219,558.292,290.71a9.1,9.1,0,0,0-5.271-3.616l-40.8-2.563a.8.8,0,0,0-.838,1.2l16.348,29.229a6.456,6.456,0,0,0,4.053,3.134l41.007,3.314A.8.8,0,0,0,573.65,320.219Z" fill="#18004c"/>
                    <path id="Path_232" data-name="Path 232" d="M564.524,298.925l-7.839,2.737,10.437,2.034Z" fill="#000f30" stroke="#1c254f" stroke-miterlimit="10" stroke-width="0"/>
                    <path id="Path_233" data-name="Path 233" d="M566.029,313.829,529.5,311.768l2.04,3.789,36.953,2.358Z" fill="#fcfaf5"/>
                  </g>
                  <path id="Path_234" data-name="Path 234" d="M564.838,310.942c1.32.79,16.574,13.965,28.858,20.02,3.386,1.67,7.814-2.212,9.03-5.736l11.393-29.952-18.544-9.359c-.08.2-3.344,18.848-6.005,25.282-.952,2.3-.369,1.975-2.513,1.175l-16.746-8.53a12.57,12.57,0,0,1-1.9-2.184c-.981-1.727-4.412-3.633-4.412-3.633l2.04,3.671c.359.616-.064.752-1.311.218l-8.315-3.5s-1.875-.4-.89.356,4.284,2.828,4.4,2.891c2.114,1.129-5.455-2.445-5.433-1.736s4.393,3.193,4.317,3.279-4.744-2.073-4.753-1.4,4.139,2.713,4.28,2.731c.27.035-3.331-1.856-3.354-1.495S564.083,310.49,564.838,310.942Z" fill="#feb38c"/>
                  <path id="Path_235" data-name="Path 235" d="M592.994,298.747c1.434-6.491,2.535-12.718,2.581-12.833l18.544,9.36-7.233,19.016C602.358,309.015,597.775,303.791,592.994,298.747Z" fill="#f5836b"/>
                  <path id="Path_236" data-name="Path 236" d="M595.093,326.33c1.688-1.1,5.81-2.435,7.314-.332-1.54,3.286-5.571,6.512-8.711,4.964-.476-.234-.957-.482-1.44-.737A6.532,6.532,0,0,1,595.093,326.33Z" fill="#f5836b"/>
                  <g id="Group_170" data-name="Group 170">
                    <path id="Path_237" data-name="Path 237" d="M597.372,272.417s2.079-13.78,11.986-10.079,9.665,45.031,5.805,51.415L586.722,300.1Z" fill="#4f6aff"/>
                    <g id="Group_169" data-name="Group 169" clip-path="url(#clip-path-2)">
                      <g id="Group_168" data-name="Group 168">
                        <path id="Path_238" data-name="Path 238" d="M600.505,262.633c-.866,7.7.082,15.846,4.176,22.423s11.738,11.234,19.438,10.377" fill="none" stroke="#fbefdf" stroke-miterlimit="10" stroke-width="0.202"/>
                        <path id="Path_239" data-name="Path 239" d="M595.011,281.676a16.721,16.721,0,0,1,4.676,3.548,4,4,0,0,1,1.084,1.783c.462,2.137-2.134,3.738-2.508,5.892a4.8,4.8,0,0,0,1.648,3.992c1.054,1.063,2.338,1.889,3.312,3.025a7.955,7.955,0,0,1-.469,10.488" fill="none" stroke="#fbefdf" stroke-miterlimit="10" stroke-width="0.202"/>
                        <path id="Path_240" data-name="Path 240" d="M617.427,303.777a3.681,3.681,0,0,0-4.237-.106c-2.181,1.519-2.017,4.729-2.972,7.209" fill="none" stroke="#fbefdf" stroke-miterlimit="10" stroke-width="0.202"/>
                      </g>
                    </g>
                  </g>
                </g>
                <g id="Group_173" data-name="Group 173">
                  <path id="Path_242" data-name="Path 242" d="M575.026,230.924c-.162,2.841,2.22,1.728,2.22,1.728a144.707,144.707,0,0,1,13.728,10.633s2.809-.506,2.827-1.211c.135-5.384-.185-11.881-.185-11.881a3.4,3.4,0,0,0,1.461-3.085s-.568-2.273-2.516-1.948a2.065,2.065,0,0,0-.568-2.111,1.573,1.573,0,0,0-1.949.163,3.563,3.563,0,0,0-2.76-3.247,3.361,3.361,0,0,0-3.815,1.867s-.487-1.38-1.3-1.3-1.137,1.38-1.137,1.38a2.058,2.058,0,0,0-2.6-1.786c-2.436.325-2.6,3.166-2.6,3.166a.943.943,0,0,0-1.218-.731c-1.461.244-2.273,2.03-.893,3.735a2.639,2.639,0,0,0-.974,2.273C572.834,230.112,575.026,230.924,575.026,230.924Z" fill="#18004c"/>
                  <path id="Path_243" data-name="Path 243" d="M591.1,241.265a.4.4,0,0,0,.653.153c.707-.694,2.114-1.646,2.619,1.118.686,3.753-3.23,3.107-3.542,3.613-.633,1.024-2.663,4.466-5.689,5.8a5.98,5.98,0,0,1-6.589-.99c-2.014-1.934-3.125.347-2.28-20.328a1.976,1.976,0,0,0,2.459,1.283c1.376-.277,2.457-1.433,3.968-1.855,1.227-.342,4.6-1.19,6.055,3.079C589.42,235.1,590.482,239.638,591.1,241.265Z" fill="#feb38c"/>
                  <g id="Group_172" data-name="Group 172">
                    <path id="Path_244" data-name="Path 244" d="M576.548,244.553s1.214.6,4.183.325c0,0-1.6,2.164-2.766,1.745S576.548,244.553,576.548,244.553Z" fill="#fff"/>
                    <path id="Path_245" data-name="Path 245" d="M593.783,242.256l-2.068,1.56S592.486,240.044,593.783,242.256Z" fill="#f5836b"/>
                    <path id="Path_246" data-name="Path 246" d="M578.973,240.169c0,.451.179.817.4.817s.4-.366.4-.817-.179-.818-.4-.818S578.973,239.717,578.973,240.169Z" fill="#000f30"/>
                    <path id="Path_247" data-name="Path 247" d="M576.373,239.769c0,.451.179.817.4.817s.4-.366.4-.817-.179-.818-.4-.818S576.373,239.317,576.373,239.769Z" fill="#000f30"/>
                    <path id="Path_248" data-name="Path 248" d="M582.333,236.645c.592.413-.335-1.457-1.139-1.665a1.4,1.4,0,0,0-1.775.911A4.323,4.323,0,0,1,582.333,236.645Z" fill="#000f30"/>
                    <path id="Path_249" data-name="Path 249" d="M576.25,236.446a4.324,4.324,0,0,1,1.458.04,1.471,1.471,0,0,0-1.473-1.164" fill="#000f30"/>
                    <path id="Path_250" data-name="Path 250" d="M577.6,239.745l-1.218,3.464a.091.091,0,0,0,.072.122l1.437.109a.087.087,0,0,0,.088-.1l-.22-3.573A.081.081,0,0,0,577.6,239.745Z" fill="#f5836b"/>
                  </g>
                </g>
              </g>
            </g>
          </g>
        </g>
      </g>
    </g>
  </g>
</svg>
