<svg id="Group_238" data-name="Group 238" xmlns="http://www.w3.org/2000/svg" xmlns:xlink="http://www.w3.org/1999/xlink" width="719.373" height="189.455" viewBox="0 0 719.373 189.455">
  <defs>
    <linearGradient id="linear-gradient" x1="27.772" y1="-4.28" x2="26.437" y2="-3.135" gradientUnits="objectBoundingBox">
      <stop offset="0" stop-color="#0027ff"/>
      <stop offset="0.06" stop-color="#ffdb53"/>
      <stop offset="0.144" stop-color="#ffc958"/>
      <stop offset="0.241" stop-color="#ffac61"/>
      <stop offset="0.347" stop-color="#ff836e"/>
      <stop offset="0.462" stop-color="#ff4f7f"/>
      <stop offset="0.583" stop-color="#ff1093"/>
      <stop offset="0.613" stop-color="#f09"/>
      <stop offset="0.62" stop-color="#fd009b"/>
      <stop offset="0.88" stop-color="#229af2"/>
      <stop offset="1" stop-color="#36a2ff"/>
    </linearGradient>
    <linearGradient id="linear-gradient-2" x1="-14.163" y1="30.757" x2="-15.297" y2="32.143" gradientUnits="objectBoundingBox">
      <stop offset="0" stop-color="#066af2"/>
      <stop offset="0.07" stop-color="#fed136"/>
      <stop offset="0.193" stop-color="#fbb340"/>
      <stop offset="0.357" stop-color="#f78150"/>
      <stop offset="0.552" stop-color="#f13e66"/>
      <stop offset="0.652" stop-color="#ee1973"/>
      <stop offset="0.799" stop-color="#d018a9"/>
      <stop offset="1" stop-color="#a418fb"/>
    </linearGradient>
    <linearGradient id="linear-gradient-3" x1="15.545" y1="-4.048" x2="16.527" y2="-3.265" gradientUnits="objectBoundingBox">
      <stop offset="0" stop-color="#35c400"/>
      <stop offset="0.065" stop-color="#36c700"/>
      <stop offset="0.181" stop-color="#fbb340"/>
      <stop offset="0.334" stop-color="#f78150"/>
      <stop offset="0.516" stop-color="#f13e66"/>
      <stop offset="0.61" stop-color="#ee1973"/>
      <stop offset="0.775" stop-color="#d018a9"/>
      <stop offset="1" stop-color="#a418fb"/>
    </linearGradient>
    <linearGradient id="linear-gradient-4" x1="-13.235" y1="17.254" x2="-12.392" y2="17.925" gradientUnits="objectBoundingBox">
      <stop offset="0" stop-color="#a418fb"/>
      <stop offset="0.248" stop-color="#d018a9"/>
      <stop offset="0.43" stop-color="#ee1973"/>
      <stop offset="0.676" stop-color="#f57355"/>
      <stop offset="0.898" stop-color="#fcbf3c"/>
      <stop offset="1" stop-color="#fd3"/>
    </linearGradient>
    <linearGradient id="linear-gradient-5" x1="-13.207" y1="18.178" x2="-14.327" y2="19.14" gradientUnits="objectBoundingBox">
      <stop offset="0" stop-color="#e4ac27"/>
      <stop offset="0.655" stop-color="#f2d254"/>
      <stop offset="1" stop-color="#caa94e"/>
    </linearGradient>
    <linearGradient id="linear-gradient-6" x1="0.073" y1="0.38" x2="0.808" y2="1" gradientUnits="objectBoundingBox">
      <stop offset="0" stop-color="#e2c54e"/>
      <stop offset="1" stop-color="#e3b943"/>
    </linearGradient>
    <linearGradient id="linear-gradient-7" x1="1.076" y1="0.104" x2="-0.099" y2="1.312" gradientUnits="objectBoundingBox">
      <stop offset="0" stop-color="#46d610"/>
      <stop offset="0.857" stop-color="#37cb24"/>
      <stop offset="1" stop-color="#c0f"/>
    </linearGradient>
    <linearGradient id="linear-gradient-8" x1="0.922" y1="0.159" x2="0.104" y2="0.75" gradientUnits="objectBoundingBox">
      <stop offset="0" stop-color="#b94cd0"/>
      <stop offset="1" stop-color="#5e2da8"/>
    </linearGradient>
    <linearGradient id="linear-gradient-9" x1="0.829" y1="0.115" x2="0" y2="0.932" gradientUnits="objectBoundingBox">
      <stop offset="0" stop-color="#a13ca2"/>
      <stop offset="1" stop-color="#4928aa"/>
    </linearGradient>
  </defs>
  <g id="Group_232" data-name="Group 232" transform="translate(0 0)">
    <path id="Path_383" data-name="Path 383" d="M49.9,56.76C28.9,56.76,12.725,40.588,12.725,18.1S28.526-20.569,49.9-20.569c20.819,0,37.549,12.64,37.549,38.478S70.722,56.76,49.9,56.76ZM11.982,93.988V42.633C19.789,57.875,34.288,65.5,49.9,65.5c25.838,0,46.658-16.73,46.658-47.587,0-29.556-19.7-46.286-44.613-47.215-17.845,0-32.53,9.108-39.78,23.05V-28H3.245V93.988ZM118.867-28V63.824h9.109V10.289a30.5,30.5,0,0,1,30.3-30.671,29.53,29.53,0,0,1,15.615,4.275l4.09-7.435a35.853,35.853,0,0,0-19.7-5.391c-11.711,0-24.723,4.833-30.486,17.287L127.418-28ZM234.118,65.125c25.838,0,46.658-17.845,46.658-47.029s-20.819-47.773-46.658-47.773S187.46-11.088,187.46,18.1,208.28,65.125,234.118,65.125Zm0-8.923c-20.819,0-37.735-14.313-37.735-38.107S213.3-21.126,234.118-21.126,271.853-5.7,271.853,18.1,254.938,56.2,234.118,56.2ZM370.932,44.863A38.887,38.887,0,0,1,343.606,56.2c-20.82,0-38.293-13.57-38.293-38.293s17.474-38.293,38.293-38.293A38.934,38.934,0,0,1,371.118-9.415l5.948-5.762a47.761,47.761,0,0,0-33.46-13.756c-26.582,0-47.216,17.845-47.216,46.843s21.377,46.843,47.216,46.843A46.972,46.972,0,0,0,377.066,51Zm107.629,18.96V-28.19h-9.108V22.929c0,18.96-13.2,33.274-32.159,33.46-19.89.186-32.716-10.967-32.716-31.787V-28.19h-9.109V24.788c0,25.466,16.916,40.523,41.453,40.523,12.826-.186,25.653-5.391,32.716-18.031V63.824Zm65.433,1.3c14.685,0,30.672-5.948,39.594-17.659l-6.506-5.2C570.2,51.369,556.076,56.2,543.994,56.2c-18.961,0-35.5-12.454-37.364-34.017h82.72c3.532-35.876-19.518-51.676-45.357-51.676S497.336-9.6,497.336,17.91C497.336,47.094,518.155,65.125,543.994,65.125ZM506.63,14.192c2.045-22.492,18.4-35.318,37.364-35.318,22.121,0,36.992,12.64,37.178,35.318Z" transform="translate(-3.245 45.934)" fill="#1a1a1a"/>
    <g id="Group_231" data-name="Group 231" transform="translate(578.221)">
      <path id="Path_369" data-name="Path 369" d="M1488.026,894.484V850.369c0-3.5-1.87-6.023-6.3-8.494-5.873-3.277-27.474-10.127-35.276-12.607-4.586-1.457-8.116,2.736-2.774,8.821,4.451,5.07,24.076,26.719,34.129,37.467C1482.817,880.914,1488.026,885.342,1488.026,894.484Z" transform="translate(-1420.439 -809.381)" fill="url(#linear-gradient)"/>
      <path id="Path_370" data-name="Path 370" d="M1488.027,979.376v-24.6c0-3.5-1.871-6.024-6.3-8.494-5.873-3.277-27.474-10.127-35.276-12.607-3-.954-5.552.514-5.456,3.35.614-4.174,5.721-1.358,9.689,1.609,6.331,4.733,15.72,12.6,27.122,21.817C1483.512,965.06,1488.027,970.233,1488.027,979.376Z" transform="translate(-1420.44 -913.786)" fill="url(#linear-gradient-2)"/>
      <path id="Path_371" data-name="Path 371" d="M1508.58,598.673v44.116c0,4.625-2.542,10.2-9.874,14.311-10.414,5.842-34.539,19.775-48.192,26.579-9.667,4.818-13.266,1.353-4.648-8.368,6.216-7.011,36.518-40.821,50.03-56.349C1501.1,612.984,1507.526,607.068,1508.58,598.673Z" transform="translate(-1440.993 -557.685)" fill="url(#linear-gradient-3)"/>
      <path id="Path_372" data-name="Path 372" d="M1047.4,905.133V861.017c0-4.625,2.541-10.2,9.874-14.311,10.414-5.842,34.538-19.775,48.192-26.579,9.666-4.817,13.266-1.352,4.648,8.368-6.216,7.012-36.518,40.821-50.03,56.35C1054.88,890.821,1048.45,896.738,1047.4,905.133Z" transform="translate(-973.832 -817.973)" fill="url(#linear-gradient-4)"/>
      <path id="Path_373" data-name="Path 373" d="M1157.369,703.523v44.116c0,3.5,1.871,6.023,6.3,8.494,5.873,3.277,27.474,10.127,35.276,12.606,4.585,1.457,8.115-2.736,2.774-8.821-4.451-5.071-24.077-26.719-34.129-37.468C1162.578,717.093,1157.369,712.665,1157.369,703.523Z" transform="translate(-1083.805 -660.478)" fill="url(#linear-gradient-5)"/>
      <path id="Path_374" data-name="Path 374" d="M1157.37,703.523v24.6c0,3.5,1.87,6.023,6.3,8.494,5.873,3.277,27.474,10.127,35.276,12.606,3,.954,5.552-.514,5.455-3.349-.614,4.174-5.72,1.358-9.688-1.608-6.331-4.733-15.721-12.6-27.123-21.817C1161.886,717.838,1157.37,712.665,1157.37,703.523Z" transform="translate(-1083.806 -640.965)" fill="url(#linear-gradient-6)"/>
      <path id="Path_375" data-name="Path 375" d="M1508.58,598.673v23.741c0,4.625-2.542,10.2-9.874,14.311-10.414,5.842-34.539,19.775-48.192,26.579-6.7,3.338-10.483,2.7-9.31-1.241-.332,3.007,2.6,2.376,5.261.287,7.552-5.932,35.641-27.364,50.524-40.472C1506.149,613.812,1507.526,607.068,1508.58,598.673Z" transform="translate(-1440.993 -537.31)" fill="url(#linear-gradient-7)"/>
      <path id="Path_376" data-name="Path 376" d="M1047.4,905.134V861.018c0-4.625,2.542-10.2,9.874-14.311,10.414-5.842,34.538-19.775,48.192-26.579,9.667-4.817,13.266-1.352,4.648,8.368-6.216,7.011-36.518,40.821-50.029,56.35C1054.881,890.822,1048.45,896.739,1047.4,905.134Z" transform="translate(-973.832 -817.974)" fill="url(#linear-gradient-8)"/>
      <path id="Path_377" data-name="Path 377" d="M1047.4,977.512V950.033c0-4.625,2.541-10.2,9.874-14.311,10.413-5.842,34.538-19.775,48.191-26.579,6.7-3.338,10.483-2.7,9.31,1.241.332-3.007-2.6-2.376-5.262-.287-7.552,5.932-38.888,30.619-53.654,43.859C1049.959,959.246,1047.4,967.043,1047.4,977.512Z" transform="translate(-973.833 -906.989)" fill="url(#linear-gradient-9)"/>
    </g>
  </g>
  <path id="Path_384" data-name="Path 384" d="M13.533,22.171c-5.7,0-10.082-4.386-10.082-10.485S7.736,1.2,13.533,1.2c5.646,0,10.183,3.428,10.183,10.435S19.179,22.171,13.533,22.171ZM3.249,34.471V18.34a11.24,11.24,0,0,0,10.284,6.2c7.007,0,12.653-4.537,12.653-12.9,0-8.015-5.343-12.552-12.1-12.8A11.869,11.869,0,0,0,3.3,5.082v-5.9H.88V34.471ZM38.688-.816v24.9h2.47V9.569a8.272,8.272,0,0,1,8.217-8.318,8.008,8.008,0,0,1,4.234,1.159L54.718.394a9.723,9.723,0,0,0-5.343-1.462c-3.176,0-6.7,1.311-8.267,4.688l-.1-4.436ZM76.395,24.44c7.007,0,12.653-4.839,12.653-12.754S83.4-1.269,76.395-1.269,63.742,3.772,63.742,11.686,69.388,24.44,76.395,24.44Zm0-2.42c-5.646,0-10.233-3.882-10.233-10.334S70.749,1.05,76.395,1.05,86.628,5.234,86.628,11.686,82.041,22.02,76.395,22.02Zm43.555-3.075a10.546,10.546,0,0,1-7.41,3.075c-5.646,0-10.385-3.68-10.385-10.384s4.739-10.384,10.385-10.384A10.558,10.558,0,0,1,120,4.225l1.613-1.563a12.952,12.952,0,0,0-9.074-3.73c-7.209,0-12.8,4.839-12.8,12.7s5.8,12.7,12.8,12.7a12.738,12.738,0,0,0,9.074-3.73Zm35.64,5.142V-.866h-2.47V13c0,5.142-3.579,9.023-8.721,9.074-5.394.05-8.872-2.974-8.872-8.62V-.866h-2.47V13.5c0,6.906,4.587,10.989,11.242,10.989a9.908,9.908,0,0,0,8.872-4.89v4.486Zm12.955-24.9v24.9h2.47V9.569a8.272,8.272,0,0,1,8.217-8.318,8.008,8.008,0,0,1,4.234,1.159L184.575.394a9.723,9.723,0,0,0-5.343-1.462c-3.176,0-6.7,1.311-8.267,4.688l-.1-4.436ZM206,24.44c3.982,0,8.318-1.613,10.737-4.789l-1.764-1.411c-1.865,2.47-5.7,3.781-8.973,3.781A9.8,9.8,0,0,1,195.867,12.8H218.3c.958-9.729-5.293-14.014-12.3-14.014a12.519,12.519,0,0,0-12.653,12.855C193.347,19.55,198.993,24.44,206,24.44ZM195.867,10.627c.555-6.1,4.991-9.578,10.133-9.578,6,0,10.032,3.428,10.082,9.578Zm74.154,13.459V9.166c0-6.2-4.335-10.485-10.435-10.485a9.623,9.623,0,0,0-9.225,6.15c-1.462-4.436-5.444-6.15-9.225-6.15a8.771,8.771,0,0,0-8.116,4.638l-.05-4.134H230.65v24.9h2.47V9.317c0-4.789,3.226-8.267,7.965-8.267S249.1,4.528,249.1,9.317v14.77h2.47V9.317c0-4.789,3.277-8.318,8.015-8.318s7.965,3.377,7.965,8.166V24.087Zm24.651.353c3.982,0,8.318-1.613,10.737-4.789l-1.764-1.411c-1.865,2.47-5.7,3.781-8.973,3.781A9.8,9.8,0,0,1,284.539,12.8h22.433c.958-9.729-5.293-14.014-12.3-14.014a12.519,12.519,0,0,0-12.653,12.855C282.018,19.55,287.664,24.44,294.671,24.44ZM284.539,10.627c.555-6.1,4.991-9.578,10.132-9.578,6,0,10.032,3.428,10.082,9.578ZM319.826-.816v24.9h2.47V10.224c0-5.142,3.579-9.023,8.721-9.074,5.394-.05,8.872,2.974,8.872,8.62V24.087h2.47V9.72c0-6.906-4.587-10.989-11.241-10.989a9.908,9.908,0,0,0-8.872,4.89V-.816Zm37.656-7.259V-.816H352.19V1.251h5.293V16.425c0,4.89,1.714,8.015,7.007,8.015a10.885,10.885,0,0,0,4.688-1.26l-.857-2.016a9.237,9.237,0,0,1-3.831,1.008c-3.882,0-4.587-2.369-4.587-5.747V1.251h8.469V-.816H359.9V-8.327ZM412.077,24.44c3.982,0,8.318-1.613,10.737-4.789l-1.764-1.411c-1.865,2.47-5.7,3.781-8.973,3.781A9.8,9.8,0,0,1,401.945,12.8h22.433c.958-9.729-5.293-14.014-12.3-14.014a12.519,12.519,0,0,0-12.653,12.855C399.424,19.55,405.07,24.44,412.077,24.44ZM401.945,10.627c.555-6.1,4.991-9.578,10.132-9.578,6,0,10.032,3.428,10.082,9.578ZM438.089-.816h-2.974v.1l8.923,11.9-9.628,12.8v.1h2.924L445.5,12.946l8.166,11.141h2.924v-.1l-9.628-12.8,8.923-11.9v-.1H452.91L445.5,9.367Zm48.344,19.761a10.545,10.545,0,0,1-7.41,3.075c-5.646,0-10.384-3.68-10.384-10.384s4.739-10.384,10.384-10.384a10.558,10.558,0,0,1,7.461,2.974L488.1,2.663a12.952,12.952,0,0,0-9.074-3.73c-7.209,0-12.8,4.839-12.8,12.7s5.8,12.7,12.8,12.7a12.738,12.738,0,0,0,9.074-3.73Zm25.407,5.495c3.982,0,8.318-1.613,10.737-4.789l-1.764-1.411c-1.865,2.47-5.7,3.781-8.973,3.781A9.8,9.8,0,0,1,501.707,12.8h22.433c.958-9.729-5.293-14.014-12.3-14.014a12.519,12.519,0,0,0-12.653,12.855C499.186,19.55,504.832,24.44,511.839,24.44ZM501.707,10.627c.555-6.1,4.991-9.578,10.132-9.578,6,0,10.032,3.428,10.082,9.578ZM536.994-11.2V24.087h2.47V-11.2Zm15.829,0V24.087h2.47V-11.2Zm27.07,35.64c3.982,0,8.318-1.613,10.737-4.789l-1.764-1.411c-1.865,2.47-5.7,3.781-8.973,3.781A9.8,9.8,0,0,1,569.761,12.8h22.433c.958-9.729-5.293-14.014-12.3-14.014A12.519,12.519,0,0,0,567.24,11.636C567.24,19.55,572.886,24.44,579.893,24.44ZM569.761,10.627c.555-6.1,4.991-9.578,10.133-9.578,6,0,10.032,3.428,10.082,9.578ZM605.048-.816v24.9h2.47V10.224c0-5.142,3.579-9.023,8.721-9.074,5.394-.05,8.872,2.974,8.872,8.62V24.087h2.47V9.72c0-6.906-4.587-10.989-11.241-10.989a9.908,9.908,0,0,0-8.872,4.89V-.816Zm54.191,19.761a10.546,10.546,0,0,1-7.41,3.075c-5.646,0-10.384-3.68-10.384-10.384s4.739-10.384,10.384-10.384a10.558,10.558,0,0,1,7.461,2.974L660.9,2.663a12.952,12.952,0,0,0-9.074-3.73c-7.209,0-12.8,4.839-12.8,12.7s5.8,12.7,12.8,12.7a12.738,12.738,0,0,0,9.074-3.73Zm25.407,5.495c3.982,0,8.318-1.613,10.737-4.789l-1.764-1.411c-1.865,2.47-5.7,3.781-8.973,3.781A9.8,9.8,0,0,1,674.513,12.8h22.433c.958-9.729-5.293-14.014-12.3-14.014a12.519,12.519,0,0,0-12.653,12.855C671.993,19.55,677.639,24.44,684.646,24.44ZM674.513,10.627c.555-6.1,4.991-9.578,10.132-9.578,6,0,10.032,3.428,10.082,9.578Z" transform="translate(1.121 154.984)" fill="#126af2"/>
</svg>
